<svg width="28" height="29" viewBox="0 0 28 29" fill="none" xmlns="http://www.w3.org/2000/svg">
<circle cx="14" cy="14.5748" r="5" fill="#F2F2F7"/>
<path d="M12.874 28.5748C12.3569 28.5748 11.9106 28.4246 11.5353 28.1242C11.16 27.8321 10.9181 27.4399 10.8097 26.9476L10.2341 24.5819C10.1174 24.5402 9.99643 24.4943 9.87131 24.4442C9.75454 24.3942 9.64611 24.3441 9.54602 24.294L7.49419 25.5707C7.06881 25.8294 6.61424 25.9337 6.13047 25.8837C5.65505 25.8419 5.23384 25.6417 4.86685 25.2829L3.29044 23.7057C2.93178 23.3469 2.72744 22.9214 2.67739 22.429C2.62735 21.9284 2.74412 21.4694 3.0277 21.0522L4.26631 19.012C4.22461 18.9035 4.17873 18.795 4.12869 18.6865C4.08698 18.578 4.04945 18.4654 4.01609 18.3486L1.63896 17.7853C1.13018 17.6768 0.729818 17.4348 0.437891 17.0593C0.145964 16.6838 0 16.2374 0 15.7201V13.5171C0 13.0081 0.145964 12.5658 0.437891 12.1903C0.729818 11.8065 1.13018 11.5603 1.63896 11.4518L3.99106 10.8886C4.02443 10.7634 4.06613 10.6466 4.11618 10.5381C4.16622 10.4213 4.21209 10.317 4.2538 10.2252L3.00268 8.12238C2.71909 7.68846 2.60232 7.23369 2.65237 6.75805C2.70241 6.27407 2.91093 5.85267 3.27793 5.49386L4.87936 3.91674C5.24635 3.57462 5.65088 3.37852 6.09294 3.32846C6.535 3.27004 6.97289 3.35766 7.40661 3.59131L9.53351 4.89305C9.6336 4.84298 9.7462 4.79292 9.87131 4.74285C9.99643 4.68444 10.1174 4.63437 10.2341 4.59265L10.8097 2.22698C10.9181 1.72631 11.16 1.32577 11.5353 1.02537C11.9106 0.724969 12.3569 0.574768 12.874 0.574768H15.126C15.6431 0.574768 16.0894 0.724969 16.4647 1.02537C16.84 1.32577 17.0819 1.72214 17.1903 2.21446L17.7659 4.61768C17.891 4.65941 18.0119 4.7053 18.1287 4.75537C18.2455 4.80543 18.3539 4.85967 18.454 4.91808L20.5934 3.59131C21.0188 3.35766 21.4525 3.27004 21.8945 3.32846C22.345 3.38687 22.7495 3.57462 23.1081 3.89171L24.7221 5.49386C25.0974 5.85267 25.3059 6.27407 25.3476 6.75805C25.3893 7.23369 25.2767 7.68846 25.0098 8.12238L23.7462 10.2252C23.7962 10.317 23.8421 10.4213 23.8838 10.5381C23.9339 10.6466 23.9797 10.7634 24.0214 10.8886L26.3735 11.4518C26.8657 11.5603 27.2577 11.8065 27.5496 12.1903C27.8499 12.5658 28 13.0081 28 13.5171V15.7201C28 16.2374 27.8499 16.6838 27.5496 17.0593C27.2577 17.4348 26.8657 17.6768 26.3735 17.7853L23.9839 18.3486C23.9506 18.4654 23.913 18.578 23.8713 18.6865C23.8296 18.795 23.7837 18.9035 23.7337 19.012L24.9723 21.0522C25.2559 21.4694 25.3727 21.9284 25.3226 22.429C25.2809 22.9214 25.0807 23.3469 24.7221 23.7057L23.1332 25.2829C22.7745 25.6417 22.3533 25.8419 21.8695 25.8837C21.3941 25.9337 20.9437 25.8294 20.5183 25.5707L18.454 24.294C18.3455 24.3441 18.2329 24.3942 18.1162 24.4442C18.0077 24.4943 17.891 24.5402 17.7659 24.5819L17.1903 26.9476C17.0819 27.4399 16.84 27.8321 16.4647 28.1242C16.0894 28.4246 15.6431 28.5748 15.126 28.5748H12.874ZM14 18.8492C14.784 18.8492 15.4972 18.6573 16.1394 18.2735C16.7817 17.8896 17.2946 17.3764 17.6783 16.7339C18.062 16.083 18.2538 15.3654 18.2538 14.581C18.2538 13.805 18.062 13.0957 17.6783 12.4532C17.2946 11.8106 16.7817 11.2975 16.1394 10.9136C15.4972 10.5298 14.784 10.3378 14 10.3378C13.216 10.3378 12.5028 10.5298 11.8606 10.9136C11.2267 11.2975 10.7137 11.8106 10.3217 12.4532C9.93804 13.0957 9.7462 13.805 9.7462 14.581C9.7462 15.3654 9.93804 16.083 10.3217 16.7339C10.7054 17.3764 11.2184 17.8896 11.8606 18.2735C12.5028 18.6573 13.216 18.8492 14 18.8492Z" fill="#C0C0C8"/>
</svg>
