<svg width="44" height="45" viewBox="0 0 44 45" fill="none" xmlns="http://www.w3.org/2000/svg">
<circle cx="22" cy="22.5748" r="5" fill="#F2F2F7"/>
<path d="M20.874 36.5748C20.3569 36.5748 19.9106 36.4246 19.5353 36.1242C19.16 35.8321 18.9181 35.4399 18.8097 34.9476L18.2341 32.5819C18.1174 32.5402 17.9964 32.4943 17.8713 32.4442C17.7545 32.3942 17.6461 32.3441 17.546 32.294L15.4942 33.5707C15.0688 33.8294 14.6142 33.9337 14.1305 33.8837C13.655 33.8419 13.2338 33.6417 12.8668 33.2829L11.2904 31.7057C10.9318 31.3469 10.7274 30.9214 10.6774 30.429C10.6273 29.9284 10.7441 29.4694 11.0277 29.0522L12.2663 27.012C12.2246 26.9035 12.1787 26.795 12.1287 26.6865C12.087 26.578 12.0494 26.4654 12.0161 26.3486L9.63896 25.7853C9.13018 25.6768 8.72982 25.4348 8.43789 25.0593C8.14596 24.6838 8 24.2374 8 23.7201V21.5171C8 21.0081 8.14596 20.5658 8.43789 20.1903C8.72982 19.8065 9.13018 19.5603 9.63896 19.4518L11.9911 18.8886C12.0244 18.7634 12.0661 18.6466 12.1162 18.5381C12.1662 18.4213 12.2121 18.317 12.2538 18.2252L11.0027 16.1224C10.7191 15.6885 10.6023 15.2337 10.6524 14.758C10.7024 14.2741 10.9109 13.8527 11.2779 13.4939L12.8794 11.9167C13.2464 11.5746 13.6509 11.3785 14.0929 11.3285C14.535 11.27 14.9729 11.3577 15.4066 11.5913L17.5335 12.8931C17.6336 12.843 17.7462 12.7929 17.8713 12.7429C17.9964 12.6844 18.1174 12.6344 18.2341 12.5926L18.8097 10.227C18.9181 9.72631 19.16 9.32577 19.5353 9.02537C19.9106 8.72497 20.3569 8.57477 20.874 8.57477H23.126C23.6431 8.57477 24.0894 8.72497 24.4647 9.02537C24.84 9.32577 25.0819 9.72214 25.1903 10.2145L25.7659 12.6177C25.891 12.6594 26.0119 12.7053 26.1287 12.7554C26.2455 12.8054 26.3539 12.8597 26.454 12.9181L28.5934 11.5913C29.0188 11.3577 29.4525 11.27 29.8945 11.3285C30.345 11.3869 30.7495 11.5746 31.1081 11.8917L32.7221 13.4939C33.0974 13.8527 33.3059 14.2741 33.3476 14.758C33.3893 15.2337 33.2767 15.6885 33.0098 16.1224L31.7462 18.2252C31.7962 18.317 31.8421 18.4213 31.8838 18.5381C31.9339 18.6466 31.9797 18.7634 32.0214 18.8886L34.3735 19.4518C34.8657 19.5603 35.2577 19.8065 35.5496 20.1903C35.8499 20.5658 36 21.0081 36 21.5171V23.7201C36 24.2374 35.8499 24.6838 35.5496 25.0593C35.2577 25.4348 34.8657 25.6768 34.3735 25.7853L31.9839 26.3486C31.9506 26.4654 31.913 26.578 31.8713 26.6865C31.8296 26.795 31.7837 26.9035 31.7337 27.012L32.9723 29.0522C33.2559 29.4694 33.3727 29.9284 33.3226 30.429C33.2809 30.9214 33.0807 31.3469 32.7221 31.7057L31.1332 33.2829C30.7745 33.6417 30.3533 33.8419 29.8695 33.8837C29.3941 33.9337 28.9437 33.8294 28.5183 33.5707L26.454 32.294C26.3455 32.3441 26.2329 32.3942 26.1162 32.4442C26.0077 32.4943 25.891 32.5402 25.7659 32.5819L25.1903 34.9476C25.0819 35.4399 24.84 35.8321 24.4647 36.1242C24.0894 36.4246 23.6431 36.5748 23.126 36.5748H20.874ZM22 26.8492C22.784 26.8492 23.4972 26.6573 24.1394 26.2735C24.7817 25.8896 25.2946 25.3764 25.6783 24.7339C26.062 24.083 26.2538 23.3654 26.2538 22.581C26.2538 21.805 26.062 21.0957 25.6783 20.4532C25.2946 19.8106 24.7817 19.2975 24.1394 18.9136C23.4972 18.5298 22.784 18.3378 22 18.3378C21.216 18.3378 20.5028 18.5298 19.8606 18.9136C19.2267 19.2975 18.7137 19.8106 18.3217 20.4532C17.938 21.0957 17.7462 21.805 17.7462 22.581C17.7462 23.3654 17.938 24.083 18.3217 24.7339C18.7054 25.3764 19.2184 25.8896 19.8606 26.2735C20.5028 26.6573 21.216 26.8492 22 26.8492Z" fill="#C0C0C8"/>
</svg>
