<svg width="72" height="93" viewBox="0 0 72 93" fill="none" xmlns="http://www.w3.org/2000/svg">
<g clip-path="url(#clip0_4187_14337)">
<path fill-rule="evenodd" clip-rule="evenodd" d="M14.1206 49.4483C14.1206 50.5661 14.973 51.4549 16.1379 51.4549H44.9758C46.1122 51.4549 46.9647 50.5661 46.9647 49.4483C46.9647 48.3303 46.1122 47.4702 44.9758 47.4702H16.1379C14.973 47.4702 14.1206 48.3303 14.1206 49.4483ZM14.1206 60.7421C14.1206 61.8313 14.973 62.6914 16.1379 62.6914H29.9175C31.0539 62.6914 31.9064 61.8313 31.9064 60.7421C31.9064 59.6243 31.0539 58.7355 29.9175 58.7355H16.1379C14.973 58.7355 14.1206 59.6243 14.1206 60.7421ZM27.5594 31.2173C27.5594 32.6219 28.3549 33.3671 29.7185 33.3671C31.0539 33.3671 31.9064 32.5074 31.9064 31.3894V30.8161C31.9064 29.1249 32.787 28.1216 34.9464 26.631C37.9581 24.6245 39.8617 22.7326 39.8617 19.2929C39.8617 14.5058 35.6283 11.6967 30.571 11.6967C26.0536 11.6967 22.0475 14.1045 21.3088 17.5156C21.2236 17.917 21.1952 18.2896 21.1952 18.7482C21.1952 20.0095 22.1612 20.6974 23.0987 20.6974C24.0647 20.6974 24.6614 20.2388 25.116 19.5222L25.5137 18.8916C26.2524 16.9137 27.9856 15.5091 30.3723 15.5091C33.3838 15.5091 35.2021 17.1143 35.2021 19.4935C35.2021 21.4714 34.0372 22.5033 31.3382 24.4239C29.0368 26.0291 27.5594 27.6916 27.5594 30.6153V31.2173ZM26.565 39.1575C26.565 40.7913 27.9856 42.1674 29.6903 42.1674C31.3097 42.1674 32.7588 40.8201 32.7588 39.1575C32.7588 37.4378 31.3664 36.0905 29.6903 36.0905C27.9572 36.0905 26.565 37.4662 26.565 39.1575ZM10.9385 79.5748C3.66513 79.5748 0 75.8197 0 68.4243V11.7253C0 4.32984 3.66513 0.574768 10.9385 0.574768H50.0614C57.3348 0.574768 61 4.32984 61 11.7253V57.571C58.6157 56.297 55.8922 55.5748 53 55.5748C43.6112 55.5748 36 63.1859 36 72.5748C36 75.0702 36.5377 77.44 37.5035 79.5748H10.9385Z" fill="#E5E5EB"/>
<path fill-rule="evenodd" clip-rule="evenodd" d="M66.2977 73.0092C66.2977 75.8109 65.4388 78.4215 63.984 80.5698L71.2791 88.0703L71.2854 88.0771C71.7537 88.5766 72 89.217 72 89.916C72 91.3169 70.9861 92.5748 69.4153 92.5748C68.7436 92.5748 68.0515 92.3262 67.5414 91.788L60.2328 84.2963C58.1904 85.6453 55.7632 86.4313 53.1489 86.4313C45.8767 86.4313 40 80.3839 40 73.0092C40 65.6228 45.8761 59.5748 53.1489 59.5748C60.4216 59.5748 66.2977 65.6228 66.2977 73.0092ZM44.2449 73.0092C44.2449 67.9489 48.2607 63.8724 53.1489 63.8724C58.0355 63.8724 62.0408 67.9473 62.0408 73.0092C62.0408 78.058 58.0362 82.1336 53.1489 82.1336C48.26 82.1336 44.2449 78.0564 44.2449 73.0092Z" fill="#E5E5EB"/>
</g>
<defs>
<clipPath id="clip0_4187_14337">
<rect width="72" height="92" fill="white" transform="translate(0 0.574768)"/>
</clipPath>
</defs>
</svg>
