<svg width="25" height="26" viewBox="0 0 25 26" fill="none" xmlns="http://www.w3.org/2000/svg">
<path d="M2.51135 1.40349C2.04855 0.945798 1.29877 0.946368 0.836677 1.40476C0.374584 1.86315 0.375159 2.60578 0.837961 3.06347L22.4886 24.4749C22.9514 24.9326 23.7012 24.932 24.1633 24.4736C24.6254 24.0153 24.6248 23.2726 24.162 22.8149L2.51135 1.40349Z" fill="#75757F"/>
<path fill-rule="evenodd" clip-rule="evenodd" d="M2.55004 6.46104C2.35942 6.67606 2.1944 6.91645 2.05498 7.18219C1.71073 7.85102 1.5386 8.66739 1.5386 9.63129V17.1655C1.5386 18.1294 1.71073 18.9457 2.05498 19.6146C2.40586 20.2834 2.91893 20.7949 3.59419 21.1489C4.26946 21.4965 5.1003 21.6702 6.08671 21.6702H9.36374L11.2009 24.7095C11.3995 25.0439 11.6014 25.2701 11.8066 25.3881C12.0185 25.5127 12.2369 25.575 12.462 25.575C12.6871 25.575 12.9023 25.5127 13.1075 25.3881C13.3193 25.2701 13.5246 25.0439 13.7232 24.7095L15.5603 21.6702H17.9292L2.55004 6.46104ZM19.6168 21.6348L3.50759 5.70359C3.53616 5.68798 3.56502 5.67267 3.59419 5.65766C4.26946 5.30357 5.1003 5.12653 6.08671 5.12653H6.276L22.0314 20.7079C21.832 20.8751 21.6114 21.0221 21.3696 21.1489C20.8703 21.4059 20.2861 21.5678 19.6168 21.6348ZM22.8114 19.7748L7.99946 5.12653L18.877 5.12653C19.8634 5.12653 20.6943 5.30357 21.3696 5.65766C22.0448 6.00518 22.5546 6.51336 22.8988 7.18219C23.2497 7.85102 23.4251 8.66739 23.4251 9.63129V17.1655C23.4251 18.1294 23.2497 18.9457 22.8988 19.6146C22.8708 19.669 22.8417 19.7225 22.8114 19.7748Z" fill="#75757F"/>
</svg>
