<svg width="335" height="335" viewBox="0 0 335 335" fill="none" xmlns="http://www.w3.org/2000/svg">
<rect width="334.824" height="334.824" rx="78.4745" fill="#FF6838"/>
<path opacity="0.6" d="M167 178C202.899 178 232 149.346 232 114C232 78.6538 202.899 50 167 50C131.101 50 102 78.6538 102 114C102 149.346 131.101 178 167 178Z" fill="white"/>
<path opacity="0.6" fill-rule="evenodd" clip-rule="evenodd" d="M207.553 247.911C221.584 236.501 230.514 219.32 230.514 200.103C230.514 165.751 201.976 137.902 166.771 137.902C131.567 137.902 103.028 165.751 103.028 200.103C103.028 234.456 131.567 262.304 166.771 262.304V290.063L207.896 247.911H207.553Z" fill="white"/>
<path fill-rule="evenodd" clip-rule="evenodd" d="M119.825 158.028C131.475 145.656 148.196 137.902 166.772 137.902C185.467 137.902 202.283 145.756 213.943 158.268C225.128 146.772 232 131.176 232 114C232 78.6538 202.899 50 167 50C131.101 50 102 78.6538 102 114C102 131.057 108.777 146.556 119.825 158.028Z" fill="white"/>
</svg>
