<svg width="487" height="205" viewBox="0 0 487 205" fill="none" xmlns="http://www.w3.org/2000/svg">
<path d="M435.398 1.94604H432.168C426.383 1.94604 421.694 6.63542 421.694 12.4201V103.162C421.694 108.947 426.383 113.636 432.168 113.636H435.398C441.183 113.636 445.872 108.947 445.872 103.162V12.4201C445.872 6.63542 441.183 1.94604 435.398 1.94604Z" fill="#3F3F49" stroke="#3F3F49" stroke-width="2.78979" stroke-miterlimit="10"/>
<path d="M312.102 143.33L311.267 141.134C309.127 135.499 302.824 132.666 297.189 134.806L184.727 177.527C179.092 179.668 176.259 185.971 178.399 191.606L179.234 193.802C181.374 199.437 187.677 202.27 193.312 200.13L305.774 157.409C311.409 155.268 314.242 148.965 312.102 143.33Z" fill="#3F3F49" stroke="#3F3F49" stroke-width="2.88767" stroke-miterlimit="10"/>
<path d="M217.622 65.6332L215.479 64.6701C209.981 62.1992 203.521 64.6532 201.05 70.1514L175.67 126.624C173.199 132.123 175.653 138.583 181.151 141.054L183.294 142.017C188.792 144.488 195.252 142.034 197.723 136.536L223.103 80.0626C225.574 74.5645 223.12 68.1042 217.622 65.6332Z" fill="#3F3F49" stroke="#3F3F49" stroke-width="2.88767" stroke-miterlimit="10"/>
<path d="M276.406 106.673L277.369 104.53C279.84 99.0317 277.386 92.5713 271.888 90.1004L215.416 64.7203C209.918 62.2494 203.457 64.7034 200.986 70.2016L200.023 72.3444C197.552 77.8426 200.006 84.3029 205.505 86.7739L261.977 112.154C267.475 114.625 273.935 112.171 276.406 106.673Z" fill="#3F3F49" stroke="#3F3F49" stroke-width="2.88767" stroke-miterlimit="10"/>
<path d="M485.565 60.0385V55.6335C485.565 50.1733 481.139 45.7468 475.678 45.7468H443.669C438.209 45.7468 433.783 50.1733 433.783 55.6335V60.0385C433.783 65.4987 438.209 69.9252 443.669 69.9252H475.678C481.139 69.9252 485.565 65.4987 485.565 60.0385Z" fill="#3F3F49" stroke="#3F3F49" stroke-width="2.59401" stroke-miterlimit="10"/>
<path d="M15.8559 79.2375H13.115C7.19533 79.2375 2.39648 84.0365 2.39648 89.9563V190.194C2.39648 196.113 7.19533 200.912 13.115 200.912H15.8559C21.7756 200.912 26.5745 196.113 26.5745 190.194V89.9563C26.5745 84.0365 21.7756 79.2375 15.8559 79.2375Z" fill="#3F3F49" stroke="#3F3F49" stroke-width="2.83873" stroke-miterlimit="10"/>
<path d="M72.5322 79.2375H69.7913C63.8716 79.2375 59.0728 84.0365 59.0728 89.9563V190.194C59.0728 196.113 63.8716 200.912 69.7913 200.912H72.5322C78.4519 200.912 83.2508 196.113 83.2508 190.194V89.9563C83.2508 84.0365 78.4519 79.2375 72.5322 79.2375Z" fill="#3F3F49" stroke="#3F3F49" stroke-width="2.83873" stroke-miterlimit="10"/>
<path d="M124.608 76.926H122.259C116.231 76.926 111.344 81.8126 111.344 87.8405V192.238C111.344 198.266 116.231 203.153 122.259 203.153H124.608C130.636 203.153 135.522 198.266 135.522 192.238V87.8405C135.522 81.8126 130.636 76.926 124.608 76.926Z" fill="#3F3F49" stroke="#3F3F49" stroke-width="2.88767" stroke-miterlimit="10"/>
<path d="M83.2996 138.938V136.589C83.2996 130.561 78.413 125.675 72.3852 125.675H13.3106C7.2828 125.675 2.39627 130.561 2.39627 136.589V138.938C2.39627 144.966 7.2828 149.853 13.3106 149.853H72.3852C78.413 149.853 83.2996 144.966 83.2996 138.938Z" fill="#3F3F49" stroke="#3F3F49" stroke-width="2.88767" stroke-miterlimit="10"/>
<path d="M83.2507 189.933V187.583C83.2507 181.555 78.3642 176.669 72.3364 176.669H13.2618C7.23397 176.669 2.34745 181.555 2.34745 187.583V189.933C2.34745 195.96 7.23397 200.847 13.2618 200.847H72.3364C78.3642 200.847 83.2507 195.96 83.2507 189.933Z" fill="#3F3F49" stroke="#3F3F49" stroke-width="2.88767" stroke-miterlimit="10"/>
<path d="M328.653 11.8298H326.303C320.276 11.8298 315.389 16.7164 315.389 22.7443V83.6796C315.389 89.7075 320.276 94.5941 326.303 94.5941H328.653C334.681 94.5941 339.567 89.7075 339.567 83.6796V22.7443C339.567 16.7164 334.681 11.8298 328.653 11.8298Z" fill="#3F3F49" stroke="#3F3F49" stroke-width="2.88767" stroke-miterlimit="10"/>
<path d="M396.243 86.4723V84.123C396.243 78.0951 391.357 73.2085 385.329 73.2085H326.254C320.226 73.2085 315.34 78.0951 315.34 84.123V86.4723C315.34 92.5003 320.226 97.3868 326.254 97.3868H385.329C391.357 97.3868 396.243 92.5003 396.243 86.4723Z" fill="#3F3F49" stroke="#3F3F49" stroke-width="2.88767" stroke-miterlimit="10"/>
<path d="M396.244 25.0937V22.7443C396.244 16.7164 391.357 11.8298 385.329 11.8298L326.255 11.8298C320.227 11.8298 315.34 16.7164 315.34 22.7443V25.0937C315.34 31.1216 320.227 36.0082 326.255 36.0082H385.329C391.357 36.0082 396.244 31.1216 396.244 25.0937Z" fill="#3F3F49" stroke="#3F3F49" stroke-width="2.88767" stroke-miterlimit="10"/>
<path d="M378.82 128.07H375.394C369.663 128.07 365.018 132.715 365.018 138.446V192.774C365.018 198.504 369.663 203.15 375.394 203.15H378.82C384.55 203.15 389.196 198.504 389.196 192.774V138.446C389.196 132.715 384.55 128.07 378.82 128.07Z" fill="#3F3F49" stroke="#3F3F49" stroke-width="2.74084" stroke-miterlimit="10"/>
<path d="M435.496 128.07H432.07C426.339 128.07 421.694 132.715 421.694 138.446V192.774C421.694 198.504 426.339 203.15 432.07 203.15H435.496C441.226 203.15 445.872 198.504 445.872 192.774V138.446C445.872 132.715 441.226 128.07 435.496 128.07Z" fill="#3F3F49" stroke="#3F3F49" stroke-width="2.74084" stroke-miterlimit="10"/>
<path d="M445.872 192.24V189.89C445.872 183.862 440.986 178.976 434.958 178.976H375.883C369.855 178.976 364.969 183.862 364.969 189.89V192.24C364.969 198.268 369.855 203.154 375.883 203.154H434.958C440.986 203.154 445.872 198.268 445.872 192.24Z" fill="#3F3F49" stroke="#3F3F49" stroke-width="2.88767" stroke-miterlimit="10"/>
<path d="M445.872 141.334V138.984C445.872 132.956 440.986 128.07 434.958 128.07H375.883C369.855 128.07 364.969 132.956 364.969 138.984V141.334C364.969 147.362 369.855 152.248 375.883 152.248H434.958C440.986 152.248 445.872 147.362 445.872 141.334Z" fill="#3F3F49" stroke="#3F3F49" stroke-width="2.88767" stroke-miterlimit="10"/>
</svg>
