<svg width="590" height="101" viewBox="0 0 590 101" fill="none" xmlns="http://www.w3.org/2000/svg">
<path d="M549.273 100.932C541.399 100.932 536.851 96.2519 536.851 87.9766V21.6381H519.677C513.025 21.6381 508.545 17.9752 508.545 11.5991C508.545 5.22304 512.89 1.56018 519.677 1.56018H578.935C585.655 1.56018 590 5.22304 590 11.5991C590 17.9752 585.52 21.6381 578.935 21.6381H561.694V87.9766C561.694 96.2519 557.146 100.932 549.273 100.932Z" fill="#FF6838"/>
<path d="M436.594 100.932C428.72 100.932 423.901 96.4554 423.901 89.0618C423.901 86.9591 424.58 83.9067 425.666 80.9221L449.83 14.5837C453.428 4.61253 459.469 0.0678711 469.176 0.0678711C479.426 0.0678711 485.399 4.40904 489.132 14.5837L513.501 80.9221C514.654 84.1102 515.13 86.4164 515.13 88.994C515.13 95.9806 509.903 100.932 502.64 100.932C495.445 100.932 491.712 97.6763 489.539 89.6723L486.213 78.8194H452.681L449.355 89.2653C446.98 97.5407 443.246 100.932 436.594 100.932ZM457.637 60.0303H480.783L469.312 22.3164H468.769L457.637 60.0303Z" fill="#FF6838"/>
<path d="M362.471 99.4399C354.597 99.4399 349.982 94.6918 349.982 86.4164V13.0235C349.982 4.74819 354.597 0.0678711 362.471 0.0678711C370.345 0.0678711 374.893 4.74819 374.893 13.0235V79.362H405.574C412.226 79.362 416.638 83.0249 416.638 89.401C416.638 95.7771 412.294 99.4399 405.574 99.4399H362.471Z" fill="#FF6838"/>
<path d="M267.306 100.932C259.432 100.932 254.816 96.2518 254.816 87.9765V13.0235C254.816 4.74815 259.432 0.0678308 267.306 0.0678308C275.179 0.0678308 279.727 4.74815 279.727 13.0235V42.4621H280.27L313.599 5.56212C317.128 1.62794 320.251 0 324.459 0C330.976 0 336.202 5.08731 336.202 11.4634C336.202 15.1263 334.913 17.8395 331.587 21.4345L308.168 46.1249L333.216 76.7844C337.288 81.8039 338.985 85.5346 338.985 88.9939C338.985 95.777 333.826 101 327.039 101C321.812 101 318.214 99.0329 314.21 93.9456L288.823 62.2686L279.727 71.7649V87.9765C279.727 96.2518 275.179 100.932 267.306 100.932Z" fill="#FF6838"/>
<path d="M190.467 99.4399C182.593 99.4399 177.977 94.6918 177.977 86.4164V13.0235C177.977 4.74819 182.593 0.0678711 190.467 0.0678711C198.341 0.0678711 202.889 4.74819 202.889 13.0235V79.362H233.57C240.222 79.362 244.634 83.0249 244.634 89.401C244.634 95.7771 240.29 99.4399 233.57 99.4399H190.467Z" fill="#FF6838"/>
<path d="M87.4274 100.932C79.5535 100.932 74.7341 96.4554 74.7341 89.0618C74.7341 86.9591 75.4129 83.9067 76.499 80.9221L100.664 14.5837C104.261 4.61253 110.302 0.0678711 120.009 0.0678711C130.259 0.0678711 136.232 4.40904 139.965 14.5837L164.334 80.9221C165.488 84.1102 165.963 86.4164 165.963 88.994C165.963 95.9806 160.736 100.932 153.473 100.932C146.278 100.932 142.545 97.6763 140.373 89.6723L137.047 78.8194H103.515L100.189 89.2653C97.8128 97.5407 94.0795 100.932 87.4274 100.932ZM108.47 60.0303H131.616L120.145 22.3164H119.602L108.47 60.0303Z" fill="#FF6838"/>
<path d="M40.7271 100.932C32.8532 100.932 28.3053 96.2519 28.3053 87.9766V21.6381H11.1321C4.47998 21.6381 0 17.9752 0 11.5991C0 5.22304 4.34422 1.56018 11.1321 1.56018H70.39C77.11 1.56018 81.4542 5.22304 81.4542 11.5991C81.4542 17.9752 76.9742 21.6381 70.39 21.6381H53.1489V87.9766C53.1489 96.2519 48.601 100.932 40.7271 100.932Z" fill="#FF6838"/>
</svg>
