<svg width="57" height="24" viewBox="0 0 57 24" fill="none" xmlns="http://www.w3.org/2000/svg">
<path fill-rule="evenodd" clip-rule="evenodd" d="M50.5821 0.299133H50.2067C49.5346 0.299133 48.9897 0.84403 48.9897 1.51619V12.0603C48.9897 12.7324 49.5346 13.2773 50.2067 13.2773H50.5821C51.2542 13.2773 51.7991 12.7324 51.7991 12.0603V8.19797H55.2627C55.8972 8.19797 56.4115 7.68362 56.4115 7.04915V6.53731C56.4115 5.90283 55.8972 5.38849 55.2627 5.38849H51.7991V1.51619C51.7991 0.84403 51.2542 0.299133 50.5821 0.299133ZM36.2552 16.7275L36.1583 16.4723C35.9096 15.8175 35.1771 15.4883 34.5224 15.737L21.4545 20.7011C20.7997 20.9499 20.4706 21.6823 20.7193 22.3371L20.8162 22.5923C21.0649 23.2471 21.7974 23.5762 22.4521 23.3275L35.52 18.3634C36.1748 18.1147 36.504 17.3822 36.2552 16.7275ZM25.0283 7.58733L25.2773 7.69923C25.3234 7.71995 25.3677 7.74309 25.41 7.76843L31.5829 10.5427C32.2218 10.8298 32.5069 11.5805 32.2198 12.2194L32.1079 12.4684C31.8208 13.1072 31.0701 13.3924 30.4312 13.1053L25.2788 10.7896L22.9651 15.938C22.678 16.5769 21.9273 16.862 21.2885 16.5749L21.0395 16.463C20.4006 16.1759 20.1154 15.4252 20.4026 14.7863L23.1937 8.5756C23.2052 8.54333 23.2181 8.51126 23.2324 8.47947L23.3443 8.23048C23.4251 8.05065 23.5426 7.89884 23.6841 7.77994C24.0454 7.4714 24.5661 7.37961 25.0283 7.58733ZM1.83244 9.28009H1.51396C0.826097 9.28009 0.26848 9.83772 0.26848 10.5256V15.9116C0.268204 15.9225 0.268065 15.9334 0.268065 15.9443V16.2173C0.268065 16.2283 0.268204 16.2392 0.26848 16.2501V21.7482C0.264653 21.7883 0.262695 21.829 0.262695 21.8701V22.1431C0.262695 22.2376 0.273029 22.3297 0.292628 22.4183C0.406551 22.9887 0.91006 23.4185 1.51396 23.4185H1.83244C1.87772 23.4185 1.92244 23.4161 1.96647 23.4113H7.96538C8.00941 23.4161 8.05413 23.4185 8.09941 23.4185H8.41789C9.10575 23.4185 9.66337 22.8608 9.66337 22.173V22.1616L9.6635 22.1431V21.8701L9.66337 21.8516V16.3363C9.66701 16.2971 9.66887 16.2574 9.66887 16.2173V15.9443C9.66887 15.9042 9.66701 15.8645 9.66337 15.8254V10.5256C9.66337 9.83772 9.10575 9.28009 8.41789 9.28009H8.09941C7.41155 9.28009 6.85393 9.83772 6.85393 10.5256V14.6761H3.07791V10.5256C3.07791 9.83772 2.5203 9.28009 1.83244 9.28009ZM6.85393 20.6019H3.07791V17.4856H6.85393V20.6019ZM14.4694 9.01154H14.1964C13.496 9.01154 12.9281 9.57935 12.9281 10.2798V22.4106C12.9281 23.111 13.496 23.6788 14.1964 23.6788H14.4694C15.1698 23.6788 15.7376 23.111 15.7376 22.4106V10.2798C15.7376 9.57935 15.1698 9.01154 14.4694 9.01154ZM39.447 4.25705H44.7644C45.4648 4.25705 46.0326 3.68924 46.0326 2.98881V2.71581C46.0326 2.01538 45.4648 1.44757 44.7644 1.44757H37.9001C37.1996 1.44757 36.6318 2.01538 36.6318 2.71581V2.98881C36.6318 3.02994 36.6338 3.07062 36.6376 3.11075V9.72595C36.6338 9.76608 36.6318 9.80676 36.6318 9.84789V10.1209C36.6318 10.8213 37.1996 11.3891 37.9001 11.3891H44.7644C45.4648 11.3891 46.0326 10.8213 46.0326 10.1209V9.84789C46.0326 9.14746 45.4648 8.57965 44.7644 8.57965H39.447V4.25705ZM43.6667 14.9544H43.6099C42.9744 14.9544 42.4537 15.4461 42.4076 16.0698C42.4015 16.1199 42.3984 16.1709 42.3984 16.2226V16.4956C42.3984 16.5368 42.4004 16.5775 42.4042 16.6176V22.0157C42.4004 22.0559 42.3984 22.0966 42.3984 22.1377V22.4107C42.3984 22.4626 42.4016 22.5138 42.4076 22.5641C42.4542 23.1874 42.9747 23.6786 43.6099 23.6786H43.6364C43.6464 23.6788 43.6565 23.6789 43.6667 23.6789H50.531C50.5411 23.6789 50.5512 23.6788 50.5613 23.6786H50.5934C51.2593 23.6786 51.7991 23.1388 51.7991 22.4729V22.4293L51.7992 22.4107V22.1377L51.7991 22.1191V16.5142C51.7992 16.508 51.7992 16.5019 51.7992 16.4956V16.2226C51.7992 16.2164 51.7992 16.2102 51.7991 16.2041V16.1601C51.7991 15.4942 51.2593 14.9544 50.5934 14.9544H50.531H50.1953H44.008H43.6667ZM45.2136 17.7639V20.8694H48.9897V17.7639H45.2136Z" fill="#9A9AA4"/>
<path d="M51.7991 8.19797V8.0302H51.6313V8.19797H51.7991ZM51.7991 5.38849H51.6313V5.55626H51.7991V5.38849ZM36.1583 16.4723L36.3151 16.4127L36.1583 16.4723ZM36.2552 16.7275L36.0984 16.787L36.2552 16.7275ZM34.5224 15.737L34.4628 15.5802L34.5224 15.737ZM21.4545 20.7011L21.5141 20.858V20.858L21.4545 20.7011ZM20.7193 22.3371L20.8761 22.2775L20.7193 22.3371ZM20.8162 22.5923L20.6594 22.6519L20.8162 22.5923ZM22.4521 23.3275L22.3926 23.1707L22.4521 23.3275ZM35.52 18.3634L35.5796 18.5203L35.52 18.3634ZM25.2773 7.69923L25.2085 7.85226V7.85226L25.2773 7.69923ZM25.0283 7.58733L24.9595 7.74035H24.9595L25.0283 7.58733ZM25.41 7.76843L25.3239 7.9124L25.3323 7.91744L25.3412 7.92146L25.41 7.76843ZM31.5829 10.5427L31.6517 10.3897L31.6517 10.3897L31.5829 10.5427ZM32.2198 12.2194L32.0668 12.1506L32.2198 12.2194ZM32.1079 12.4684L31.9549 12.3996L32.1079 12.4684ZM30.4312 13.1053L30.3625 13.2583L30.4312 13.1053ZM25.2788 10.7896L25.3476 10.6366L25.1946 10.5678L25.1258 10.7209L25.2788 10.7896ZM22.9651 15.938L23.1181 16.0068V16.0068L22.9651 15.938ZM21.2885 16.5749L21.2197 16.7279L21.2885 16.5749ZM21.0395 16.463L21.1082 16.31L21.0395 16.463ZM20.4026 14.7863L20.2495 14.7175L20.4026 14.7863ZM23.1937 8.5756L23.3472 8.6446L23.3518 8.63183L23.1937 8.5756ZM23.2324 8.47947L23.0793 8.4107V8.4107L23.2324 8.47947ZM23.3443 8.23048L23.1912 8.16171L23.3443 8.23048ZM23.6841 7.77994L23.792 7.90836L23.793 7.90753L23.6841 7.77994ZM0.26848 15.9116L0.436251 15.9158V15.9116H0.26848ZM0.26848 16.2501H0.436305L0.436198 16.2458L0.26848 16.2501ZM0.26848 21.7482L0.435493 21.7641L0.436251 21.7562V21.7482H0.26848ZM0.292628 22.4183L0.457185 22.3854L0.456439 22.382L0.292628 22.4183ZM1.96647 23.4113V23.2436H1.95752L1.94862 23.2445L1.96647 23.4113ZM7.96538 23.4113L7.98323 23.2445L7.97433 23.2436H7.96538V23.4113ZM9.66337 22.1616L9.4956 22.1604V22.1616H9.66337ZM9.6635 22.1431L9.83127 22.1443V22.1431H9.6635ZM9.6635 21.8701H9.83127L9.83127 21.8689L9.6635 21.8701ZM9.66337 21.8516H9.49559L9.4956 21.8528L9.66337 21.8516ZM9.66337 16.3363L9.49632 16.3207L9.4956 16.3285V16.3363H9.66337ZM9.66337 15.8254H9.4956V15.8332L9.49632 15.8409L9.66337 15.8254ZM6.85393 14.6761V14.8439H7.0217V14.6761H6.85393ZM3.07791 14.6761H2.91014V14.8439H3.07791V14.6761ZM3.07791 20.6019H2.91014V20.7696H3.07791V20.6019ZM6.85393 20.6019V20.7696H7.0217V20.6019H6.85393ZM3.07791 17.4856V17.3178H2.91014V17.4856H3.07791ZM6.85393 17.4856H7.0217V17.3178H6.85393V17.4856ZM39.447 4.25705V4.08928H39.2793V4.25705H39.447ZM36.6376 3.11075H36.8054V3.10276L36.8046 3.09481L36.6376 3.11075ZM36.6376 9.72595L36.8046 9.74189L36.8054 9.73394V9.72595H36.6376ZM39.447 8.57965H39.2793V8.74742H39.447V8.57965ZM42.4076 16.0698L42.5743 16.0898L42.5749 16.0822L42.4076 16.0698ZM42.4042 16.6176H42.572V16.6096L42.5712 16.6016L42.4042 16.6176ZM42.4042 22.0157L42.5712 22.0317L42.572 22.0237V22.0157H42.4042ZM42.4076 22.5641L42.5751 22.5516L42.5742 22.544L42.4076 22.5641ZM43.6364 23.6786L43.6403 23.5108H43.6364V23.6786ZM50.5613 23.6786V23.5108L50.5574 23.5108L50.5613 23.6786ZM51.7991 22.4293L51.6313 22.4281V22.4293H51.7991ZM51.7992 22.4107L51.967 22.4119V22.4107H51.7992ZM51.7992 22.1377H51.967L51.967 22.1365L51.7992 22.1377ZM51.7991 22.1191H51.6313L51.6313 22.1203L51.7991 22.1191ZM51.7991 16.5142L51.6313 16.5119V16.5142H51.7991ZM51.7991 16.2041H51.6313L51.6314 16.2064L51.7991 16.2041ZM45.2136 17.7639V17.5961H45.0459V17.7639H45.2136ZM45.2136 20.8694H45.0459V21.0372H45.2136V20.8694ZM48.9897 20.8694V21.0372H49.1574V20.8694H48.9897ZM48.9897 17.7639H49.1574V17.5961H48.9897V17.7639ZM50.2067 0.466904H50.5821V0.131362H50.2067V0.466904ZM49.1574 1.51619C49.1574 0.936685 49.6272 0.466904 50.2067 0.466904V0.131362C49.4419 0.131362 48.8219 0.751375 48.8219 1.51619H49.1574ZM49.1574 12.0603V1.51619H48.8219V12.0603H49.1574ZM50.2067 13.1096C49.6272 13.1096 49.1574 12.6398 49.1574 12.0603H48.8219C48.8219 12.8251 49.4419 13.4451 50.2067 13.4451V13.1096ZM50.5821 13.1096H50.2067V13.4451H50.5821V13.1096ZM51.6313 12.0603C51.6313 12.6398 51.1616 13.1096 50.5821 13.1096V13.4451C51.3469 13.4451 51.9669 12.8251 51.9669 12.0603H51.6313ZM51.6313 8.19797V12.0603H51.9669V8.19797H51.6313ZM55.2627 8.0302H51.7991V8.36574H55.2627V8.0302ZM56.2438 7.04915C56.2438 7.59097 55.8046 8.0302 55.2627 8.0302V8.36574C55.9899 8.36574 56.5793 7.77628 56.5793 7.04915H56.2438ZM56.2438 6.53731V7.04915H56.5793V6.53731H56.2438ZM55.2627 5.55626C55.8046 5.55626 56.2438 5.99549 56.2438 6.53731H56.5793C56.5793 5.81018 55.9899 5.22072 55.2627 5.22072V5.55626ZM51.7991 5.55626H55.2627V5.22072H51.7991V5.55626ZM51.6313 1.51619V5.38849H51.9669V1.51619H51.6313ZM50.5821 0.466904C51.1616 0.466904 51.6313 0.936685 51.6313 1.51619H51.9669C51.9669 0.751375 51.3469 0.131362 50.5821 0.131362V0.466904ZM36.0015 16.5319L36.0984 16.787L36.4121 16.6679L36.3151 16.4127L36.0015 16.5319ZM34.5819 15.8939C35.1501 15.6781 35.7856 15.9637 36.0015 16.5319L36.3151 16.4127C36.0335 15.6713 35.2042 15.2986 34.4628 15.5802L34.5819 15.8939ZM21.5141 20.858L34.5819 15.8939L34.4628 15.5802L21.3949 20.5443L21.5141 20.858ZM20.8761 22.2775C20.6603 21.7093 20.9459 21.0738 21.5141 20.858L21.3949 20.5443C20.6535 20.8259 20.2808 21.6553 20.5624 22.3967L20.8761 22.2775ZM20.9731 22.5327L20.8761 22.2775L20.5624 22.3967L20.6594 22.6519L20.9731 22.5327ZM22.3926 23.1707C21.8244 23.3865 21.1889 23.1009 20.9731 22.5327L20.6594 22.6519C20.941 23.3933 21.7703 23.766 22.5117 23.4843L22.3926 23.1707ZM35.4604 18.2066L22.3926 23.1707L22.5117 23.4843L35.5796 18.5203L35.4604 18.2066ZM36.0984 16.787C36.3142 17.3552 36.0286 17.9908 35.4604 18.2066L35.5796 18.5203C36.321 18.2386 36.6937 17.4093 36.4121 16.6679L36.0984 16.787ZM25.3461 7.5462L25.0971 7.4343L24.9595 7.74035L25.2085 7.85226L25.3461 7.5462ZM25.4961 7.62446C25.4482 7.59578 25.3981 7.56961 25.3461 7.5462L25.2085 7.85226C25.2486 7.8703 25.2871 7.89041 25.3239 7.9124L25.4961 7.62446ZM31.6517 10.3897L25.4788 7.6154L25.3412 7.92146L31.5141 10.6957L31.6517 10.3897ZM32.3728 12.2881C32.6979 11.5647 32.3751 10.7148 31.6517 10.3897L31.5141 10.6957C32.0685 10.9448 32.3159 11.5962 32.0668 12.1506L32.3728 12.2881ZM32.2609 12.5371L32.3728 12.2881L32.0668 12.1506L31.9549 12.3996L32.2609 12.5371ZM30.3625 13.2583C31.0859 13.5834 31.9358 13.2605 32.2609 12.5371L31.9549 12.3996C31.7057 12.9539 31.0544 13.2014 30.5 12.9522L30.3625 13.2583ZM25.2101 10.9427L30.3625 13.2583L30.5 12.9522L25.3476 10.6366L25.2101 10.9427ZM23.1181 16.0068L25.4319 10.8584L25.1258 10.7209L22.8121 15.8692L23.1181 16.0068ZM21.2197 16.7279C21.9431 17.053 22.793 16.7301 23.1181 16.0068L22.8121 15.8692C22.5629 16.4236 21.9116 16.671 21.3572 16.4219L21.2197 16.7279ZM20.9707 16.616L21.2197 16.7279L21.3572 16.4219L21.1082 16.31L20.9707 16.616ZM20.2495 14.7175C19.9244 15.4409 20.2473 16.2909 20.9707 16.616L21.1082 16.31C20.5539 16.0608 20.3065 15.4094 20.5556 14.8551L20.2495 14.7175ZM23.0407 8.50683L20.2495 14.7175L20.5556 14.8551L23.3468 8.64438L23.0407 8.50683ZM23.0793 8.4107C23.0632 8.44661 23.0486 8.48286 23.0357 8.51937L23.3518 8.63183C23.3618 8.6038 23.373 8.57592 23.3854 8.54824L23.0793 8.4107ZM23.1912 8.16171L23.0793 8.4107L23.3854 8.54825L23.4973 8.29925L23.1912 8.16171ZM23.5761 7.65152C23.4158 7.78631 23.2826 7.95836 23.1912 8.16171L23.4973 8.29925C23.5675 8.14293 23.6695 8.01137 23.792 7.90836L23.5761 7.65152ZM25.0971 7.4343C24.5735 7.19901 23.984 7.30327 23.5751 7.65235L23.793 7.90753C24.1069 7.63953 24.5587 7.56022 24.9595 7.74035L25.0971 7.4343ZM1.51396 9.44786H1.83244V9.11232H1.51396V9.44786ZM0.436251 10.5256C0.436251 9.93037 0.918757 9.44786 1.51396 9.44786V9.11232C0.733437 9.11232 0.100709 9.74506 0.100709 10.5256H0.436251ZM0.436251 15.9116V10.5256H0.100709V15.9116H0.436251ZM0.435837 15.9443C0.435837 15.9348 0.435957 15.9253 0.436198 15.9158L0.100763 15.9073C0.100451 15.9196 0.100294 15.932 0.100294 15.9443H0.435837ZM0.435837 16.2173V15.9443H0.100294V16.2173H0.435837ZM0.436198 16.2458C0.435957 16.2364 0.435837 16.2269 0.435837 16.2173H0.100294C0.100294 16.2297 0.100451 16.242 0.100763 16.2543L0.436198 16.2458ZM0.436251 21.7482V16.2501H0.100709V21.7482H0.436251ZM0.430466 21.8701C0.430466 21.8343 0.43217 21.799 0.435493 21.7641L0.101467 21.7323C0.0971355 21.7777 0.0949242 21.8237 0.0949242 21.8701H0.430466ZM0.430466 22.1431V21.8701H0.0949242V22.1431H0.430466ZM0.456439 22.382C0.439455 22.3053 0.430466 22.2253 0.430466 22.1431H0.0949242C0.0949242 22.2499 0.106603 22.3541 0.128817 22.4545L0.456439 22.382ZM1.51396 23.2507C0.991602 23.2507 0.555712 22.8789 0.45715 22.3854L0.128106 22.4511C0.25739 23.0984 0.828518 23.5862 1.51396 23.5862V23.2507ZM1.83244 23.2507H1.51396V23.5862H1.83244V23.2507ZM1.94862 23.2445C1.91051 23.2486 1.87175 23.2507 1.83244 23.2507V23.5862C1.88369 23.5862 1.93437 23.5835 1.98432 23.5782L1.94862 23.2445ZM7.96538 23.2436H1.96647V23.5791H7.96538V23.2436ZM8.09941 23.2507C8.0601 23.2507 8.02134 23.2486 7.98323 23.2445L7.94753 23.5782C7.99748 23.5835 8.04815 23.5862 8.09941 23.5862V23.2507ZM8.41789 23.2507H8.09941V23.5862H8.41789V23.2507ZM9.4956 22.173C9.4956 22.7682 9.01309 23.2507 8.41789 23.2507V23.5862C9.1984 23.5862 9.83114 22.9535 9.83114 22.173H9.4956ZM9.4956 22.1616V22.173H9.83114V22.1616H9.4956ZM9.49573 22.1419L9.4956 22.1604L9.83113 22.1628L9.83127 22.1443L9.49573 22.1419ZM9.49573 21.8701V22.1431H9.83127V21.8701H9.49573ZM9.4956 21.8528L9.49573 21.8713L9.83127 21.8689L9.83113 21.8504L9.4956 21.8528ZM9.4956 16.3363V21.8516H9.83114V16.3363H9.4956ZM9.5011 16.2173C9.5011 16.2522 9.49948 16.2867 9.49632 16.3207L9.83042 16.3518C9.83454 16.3075 9.83664 16.2626 9.83664 16.2173H9.5011ZM9.5011 15.9443V16.2173H9.83664V15.9443H9.5011ZM9.49632 15.8409C9.49948 15.8749 9.5011 15.9094 9.5011 15.9443H9.83664C9.83664 15.899 9.83454 15.8542 9.83042 15.8099L9.49632 15.8409ZM9.4956 10.5256V15.8254H9.83114V10.5256H9.4956ZM8.41789 9.44786C9.01309 9.44786 9.4956 9.93037 9.4956 10.5256H9.83114C9.83114 9.74506 9.1984 9.11232 8.41789 9.11232V9.44786ZM8.09941 9.44786H8.41789V9.11232H8.09941V9.44786ZM7.0217 10.5256C7.0217 9.93037 7.50421 9.44786 8.09941 9.44786V9.11232C7.31889 9.11232 6.68616 9.74506 6.68616 10.5256H7.0217ZM7.0217 14.6761V10.5256H6.68616V14.6761H7.0217ZM3.07791 14.8439H6.85393V14.5083H3.07791V14.8439ZM2.91014 10.5256V14.6761H3.24568V10.5256H2.91014ZM1.83244 9.44786C2.42764 9.44786 2.91014 9.93037 2.91014 10.5256H3.24568C3.24568 9.74506 2.61296 9.11232 1.83244 9.11232V9.44786ZM3.07791 20.7696H6.85393V20.4341H3.07791V20.7696ZM2.91014 17.4856V20.6019H3.24568V17.4856H2.91014ZM6.85393 17.3178H3.07791V17.6533H6.85393V17.3178ZM7.0217 20.6019V17.4856H6.68616V20.6019H7.0217ZM14.1964 9.17931H14.4694V8.84376H14.1964V9.17931ZM13.0959 10.2798C13.0959 9.672 13.5886 9.17931 14.1964 9.17931V8.84376C13.4033 8.84376 12.7604 9.48669 12.7604 10.2798H13.0959ZM13.0959 22.4106V10.2798H12.7604V22.4106H13.0959ZM14.1964 23.5111C13.5886 23.5111 13.0959 23.0184 13.0959 22.4106H12.7604C12.7604 23.2037 13.4033 23.8466 14.1964 23.8466V23.5111ZM14.4694 23.5111H14.1964V23.8466H14.4694V23.5111ZM15.5698 22.4106C15.5698 23.0184 15.0771 23.5111 14.4694 23.5111V23.8466C15.2624 23.8466 15.9054 23.2037 15.9054 22.4106H15.5698ZM15.5698 10.2798V22.4106H15.9054V10.2798H15.5698ZM14.4694 9.17931C15.0771 9.17931 15.5698 9.672 15.5698 10.2798H15.9054C15.9054 9.48669 15.2624 8.84376 14.4694 8.84376V9.17931ZM44.7644 4.08928H39.447V4.42482H44.7644V4.08928ZM45.8649 2.98881C45.8649 3.59658 45.3722 4.08928 44.7644 4.08928V4.42482C45.5575 4.42482 46.2004 3.78189 46.2004 2.98881H45.8649ZM45.8649 2.71581V2.98881H46.2004V2.71581H45.8649ZM44.7644 1.61534C45.3722 1.61534 45.8649 2.10804 45.8649 2.71581H46.2004C46.2004 1.92273 45.5575 1.2798 44.7644 1.2798V1.61534ZM37.9001 1.61534H44.7644V1.2798H37.9001V1.61534ZM36.7996 2.71581C36.7996 2.10804 37.2923 1.61534 37.9001 1.61534V1.2798C37.107 1.2798 36.4641 1.92273 36.4641 2.71581H36.7996ZM36.7996 2.98881V2.71581H36.4641V2.98881H36.7996ZM36.8046 3.09481C36.8013 3.05998 36.7996 3.02462 36.7996 2.98881H36.4641C36.4641 3.03526 36.4663 3.08126 36.4706 3.12669L36.8046 3.09481ZM36.8054 9.72595V3.11075H36.4698V9.72595H36.8054ZM36.7996 9.84789C36.7996 9.81208 36.8013 9.77672 36.8046 9.74189L36.4706 9.71001C36.4663 9.75544 36.4641 9.80143 36.4641 9.84789H36.7996ZM36.7996 10.1209V9.84789H36.4641V10.1209H36.7996ZM37.9001 11.2214C37.2923 11.2214 36.7996 10.7287 36.7996 10.1209H36.4641C36.4641 10.914 37.107 11.5569 37.9001 11.5569V11.2214ZM44.7644 11.2214H37.9001V11.5569H44.7644V11.2214ZM45.8649 10.1209C45.8649 10.7287 45.3722 11.2214 44.7644 11.2214V11.5569C45.5575 11.5569 46.2004 10.914 46.2004 10.1209H45.8649ZM45.8649 9.84789V10.1209H46.2004V9.84789H45.8649ZM44.7644 8.74742C45.3722 8.74742 45.8649 9.24012 45.8649 9.84789H46.2004C46.2004 9.0548 45.5575 8.41188 44.7644 8.41188V8.74742ZM39.447 8.74742H44.7644V8.41188H39.447V8.74742ZM39.2793 4.25705V8.57965H39.6148V4.25705H39.2793ZM43.6099 15.1222H43.6667V14.7866H43.6099V15.1222ZM42.5749 16.0822C42.6146 15.5454 43.0629 15.1222 43.6099 15.1222V14.7866C42.8859 14.7866 42.2929 15.3467 42.2402 16.0574L42.5749 16.0822ZM42.241 16.0498C42.2342 16.1065 42.2307 16.1642 42.2307 16.2226H42.5662C42.5662 16.1776 42.5689 16.1333 42.5741 16.0898L42.241 16.0498ZM42.2307 16.2226V16.4956H42.5662V16.2226H42.2307ZM42.2307 16.4956C42.2307 16.5421 42.2329 16.5881 42.2372 16.6335L42.5712 16.6016C42.5679 16.5668 42.5662 16.5315 42.5662 16.4956H42.2307ZM42.572 22.0157V16.6176H42.2365V22.0157H42.572ZM42.5662 22.1377C42.5662 22.1019 42.5679 22.0665 42.5712 22.0317L42.2372 21.9998C42.2329 22.0452 42.2307 22.0912 42.2307 22.1377H42.5662ZM42.5662 22.4107V22.1377H42.2307V22.4107H42.5662ZM42.5742 22.544C42.5689 22.5004 42.5662 22.4559 42.5662 22.4107H42.2307C42.2307 22.4693 42.2342 22.5272 42.2411 22.5842L42.5742 22.544ZM43.6099 23.5108C43.0632 23.5108 42.615 23.088 42.5749 22.5516L42.2403 22.5766C42.2934 23.2868 42.8862 23.8463 43.6099 23.8463V23.5108ZM43.6364 23.5108H43.6099V23.8463H43.6364V23.5108ZM43.6667 23.5112C43.6578 23.5112 43.6491 23.5111 43.6403 23.5108L43.6324 23.8463C43.6438 23.8466 43.6552 23.8467 43.6667 23.8467V23.5112ZM50.531 23.5112H43.6667V23.8467H50.531V23.5112ZM50.5574 23.5108C50.5486 23.5111 50.5398 23.5112 50.531 23.5112V23.8467C50.5424 23.8467 50.5539 23.8466 50.5653 23.8463L50.5574 23.5108ZM50.5934 23.5108H50.5613V23.8463H50.5934V23.5108ZM51.6313 22.4729C51.6313 23.0461 51.1667 23.5108 50.5934 23.5108V23.8463C51.352 23.8463 51.9669 23.2314 51.9669 22.4729H51.6313ZM51.6313 22.4293V22.4729H51.9669V22.4293H51.6313ZM51.6315 22.4095L51.6313 22.4281L51.9669 22.4305L51.967 22.4119L51.6315 22.4095ZM51.6315 22.1377V22.4107H51.967V22.1377H51.6315ZM51.6313 22.1203L51.6315 22.1389L51.967 22.1365L51.9669 22.1179L51.6313 22.1203ZM51.6313 16.5142V22.1191H51.9669V16.5142H51.6313ZM51.9669 16.5166C51.967 16.5097 51.967 16.5027 51.967 16.4956H51.6315C51.6315 16.501 51.6314 16.5064 51.6314 16.5119L51.9669 16.5166ZM51.967 16.4956V16.2226H51.6315V16.4956H51.967ZM51.967 16.2226C51.967 16.2156 51.967 16.2086 51.9669 16.2017L51.6314 16.2064C51.6314 16.2119 51.6315 16.2173 51.6315 16.2226H51.967ZM51.6313 16.1601V16.2041H51.9669V16.1601H51.6313ZM50.5934 15.1222C51.1667 15.1222 51.6313 15.5869 51.6313 16.1601H51.9669C51.9669 15.4016 51.352 14.7866 50.5934 14.7866V15.1222ZM50.531 15.1222H50.5934V14.7866H50.531V15.1222ZM50.531 14.7866H50.1953V15.1222H50.531V14.7866ZM50.1953 14.7866H44.008V15.1222H50.1953V14.7866ZM44.008 14.7866H43.6667V15.1222H44.008V14.7866ZM45.0459 17.7639V20.8694H45.3814V17.7639H45.0459ZM45.2136 21.0372H48.9897V20.7017H45.2136V21.0372ZM49.1574 20.8694V17.7639H48.8219V20.8694H49.1574ZM45.2136 17.9317H48.9897V17.5961H45.2136V17.9317Z" fill="#9A9AA4"/>
</svg>
