<svg width="75" height="45" viewBox="0 0 75 45" fill="none" xmlns="http://www.w3.org/2000/svg">
<path fill-rule="evenodd" clip-rule="evenodd" d="M59.5821 10.2991H59.2067C58.5346 10.2991 57.9897 10.844 57.9897 11.5162V22.0603C57.9897 22.7324 58.5346 23.2773 59.2067 23.2773H59.5821C60.2542 23.2773 60.7991 22.7324 60.7991 22.0603V18.198H64.2627C64.8972 18.198 65.4115 17.6836 65.4115 17.0491V16.5373C65.4115 15.9028 64.8972 15.3885 64.2627 15.3885H60.7991V11.5162C60.7991 10.844 60.2542 10.2991 59.5821 10.2991ZM45.2552 26.7275L45.1583 26.4723C44.9096 25.8175 44.1771 25.4883 43.5224 25.737L30.4545 30.7011C29.7997 30.9499 29.4706 31.6823 29.7193 32.3371L29.8162 32.5923C30.0649 33.2471 30.7974 33.5762 31.4521 33.3275L44.52 28.3634C45.1748 28.1147 45.504 27.3822 45.2552 26.7275ZM34.0283 17.5873L34.2773 17.6992C34.3234 17.72 34.3677 17.7431 34.41 17.7684L40.5829 20.5427C41.2218 20.8298 41.5069 21.5805 41.2198 22.2194L41.1079 22.4684C40.8208 23.1072 40.0701 23.3924 39.4312 23.1053L34.2788 20.7896L31.9651 25.938C31.678 26.5769 30.9273 26.862 30.2885 26.5749L30.0395 26.463C29.4006 26.1759 29.1154 25.4252 29.4026 24.7863L32.1937 18.5756C32.2052 18.5433 32.2181 18.5113 32.2324 18.4795L32.3443 18.2305C32.4251 18.0506 32.5426 17.8988 32.6841 17.7799C33.0454 17.4714 33.5661 17.3796 34.0283 17.5873ZM10.8324 19.2801H10.514C9.8261 19.2801 9.26848 19.8377 9.26848 20.5256V25.9116C9.2682 25.9225 9.26807 25.9334 9.26807 25.9443V26.2173C9.26807 26.2283 9.2682 26.2392 9.26848 26.2501V31.7482C9.26465 31.7883 9.2627 31.829 9.2627 31.8701V32.1431C9.2627 32.2376 9.27303 32.3297 9.29263 32.4183C9.40655 32.9887 9.91006 33.4185 10.514 33.4185H10.8324C10.8777 33.4185 10.9224 33.4161 10.9665 33.4113H16.9654C17.0094 33.4161 17.0541 33.4185 17.0994 33.4185H17.4179C18.1057 33.4185 18.6634 32.8608 18.6634 32.173V32.1616L18.6635 32.1431V31.8701L18.6634 31.8516V26.3363C18.667 26.2971 18.6689 26.2574 18.6689 26.2173V25.9443C18.6689 25.9042 18.667 25.8645 18.6634 25.8254V20.5256C18.6634 19.8377 18.1057 19.2801 17.4179 19.2801H17.0994C16.4116 19.2801 15.8539 19.8377 15.8539 20.5256V24.6761H12.0779V20.5256C12.0779 19.8377 11.5203 19.2801 10.8324 19.2801ZM15.8539 30.6019H12.0779V27.4856H15.8539V30.6019ZM23.4694 19.0115H23.1964C22.496 19.0115 21.9281 19.5793 21.9281 20.2798V32.4106C21.9281 33.111 22.496 33.6788 23.1964 33.6788H23.4694C24.1698 33.6788 24.7376 33.111 24.7376 32.4106V20.2798C24.7376 19.5793 24.1698 19.0115 23.4694 19.0115ZM48.447 14.257H53.7644C54.4648 14.257 55.0326 13.6892 55.0326 12.9888V12.7158C55.0326 12.0154 54.4648 11.4476 53.7644 11.4476H46.9001C46.1996 11.4476 45.6318 12.0154 45.6318 12.7158V12.9888C45.6318 13.0299 45.6338 13.0706 45.6376 13.1108V19.7259C45.6338 19.7661 45.6318 19.8068 45.6318 19.8479V20.1209C45.6318 20.8213 46.1996 21.3891 46.9001 21.3891H53.7644C54.4648 21.3891 55.0326 20.8213 55.0326 20.1209V19.8479C55.0326 19.1475 54.4648 18.5797 53.7644 18.5797H48.447V14.257ZM52.6667 24.9544H52.6099C51.9744 24.9544 51.4537 25.4461 51.4076 26.0698C51.4015 26.1199 51.3984 26.1709 51.3984 26.2226V26.4956C51.3984 26.5368 51.4004 26.5775 51.4042 26.6176V32.0157C51.4004 32.0559 51.3984 32.0966 51.3984 32.1377V32.4107C51.3984 32.4626 51.4016 32.5138 51.4076 32.5641C51.4542 33.1874 51.9747 33.6786 52.6099 33.6786H52.6364C52.6464 33.6788 52.6565 33.6789 52.6667 33.6789H59.531C59.5411 33.6789 59.5512 33.6788 59.5613 33.6786H59.5934C60.2593 33.6786 60.7991 33.1388 60.7991 32.4729V32.4293L60.7992 32.4107V32.1377L60.7991 32.1191V26.5142C60.7992 26.508 60.7992 26.5019 60.7992 26.4956V26.2226C60.7992 26.2164 60.7992 26.2102 60.7991 26.2041V26.1601C60.7991 25.4942 60.2593 24.9544 59.5934 24.9544H59.531H59.1953H53.008H52.6667ZM54.2136 27.7639V30.8694H57.9897V27.7639H54.2136Z" fill="#9A9AA4"/>
<path d="M60.7991 18.198V18.0302H60.6313V18.198H60.7991ZM60.7991 15.3885H60.6313V15.5563H60.7991V15.3885ZM45.1583 26.4723L45.3151 26.4127L45.1583 26.4723ZM45.2552 26.7275L45.0984 26.787L45.2552 26.7275ZM43.5224 25.737L43.4628 25.5802L43.5224 25.737ZM30.4545 30.7011L30.5141 30.858V30.858L30.4545 30.7011ZM29.7193 32.3371L29.8761 32.2775L29.7193 32.3371ZM29.8162 32.5923L29.6594 32.6519L29.8162 32.5923ZM31.4521 33.3275L31.3926 33.1707L31.4521 33.3275ZM44.52 28.3634L44.5796 28.5203L44.52 28.3634ZM34.2773 17.6992L34.2085 17.8523V17.8523L34.2773 17.6992ZM34.0283 17.5873L33.9595 17.7404H33.9595L34.0283 17.5873ZM34.41 17.7684L34.3239 17.9124L34.3323 17.9174L34.3412 17.9215L34.41 17.7684ZM40.5829 20.5427L40.6517 20.3897L40.6517 20.3897L40.5829 20.5427ZM41.2198 22.2194L41.0668 22.1506L41.2198 22.2194ZM41.1079 22.4684L40.9549 22.3996L41.1079 22.4684ZM39.4312 23.1053L39.3625 23.2583L39.4312 23.1053ZM34.2788 20.7896L34.3476 20.6366L34.1946 20.5678L34.1258 20.7209L34.2788 20.7896ZM31.9651 25.938L32.1181 26.0068V26.0068L31.9651 25.938ZM30.2885 26.5749L30.2197 26.7279L30.2885 26.5749ZM30.0395 26.463L30.1082 26.31L30.0395 26.463ZM29.4026 24.7863L29.2495 24.7175L29.4026 24.7863ZM32.1937 18.5756L32.3472 18.6446L32.3518 18.6318L32.1937 18.5756ZM32.2324 18.4795L32.0793 18.4107V18.4107L32.2324 18.4795ZM32.3443 18.2305L32.1912 18.1617L32.3443 18.2305ZM32.6841 17.7799L32.792 17.9084L32.793 17.9075L32.6841 17.7799ZM9.26848 25.9116L9.43625 25.9158V25.9116H9.26848ZM9.26848 26.2501H9.43631L9.4362 26.2458L9.26848 26.2501ZM9.26848 31.7482L9.43549 31.7641L9.43625 31.7562V31.7482H9.26848ZM9.29263 32.4183L9.45718 32.3854L9.45644 32.382L9.29263 32.4183ZM10.9665 33.4113V33.2436H10.9575L10.9486 33.2445L10.9665 33.4113ZM16.9654 33.4113L16.9832 33.2445L16.9743 33.2436H16.9654V33.4113ZM18.6634 32.1616L18.4956 32.1604V32.1616H18.6634ZM18.6635 32.1431L18.8313 32.1443V32.1431H18.6635ZM18.6635 31.8701H18.8313L18.8313 31.8689L18.6635 31.8701ZM18.6634 31.8516H18.4956L18.4956 31.8528L18.6634 31.8516ZM18.6634 26.3363L18.4963 26.3207L18.4956 26.3285V26.3363H18.6634ZM18.6634 25.8254H18.4956V25.8332L18.4963 25.8409L18.6634 25.8254ZM15.8539 24.6761V24.8439H16.0217V24.6761H15.8539ZM12.0779 24.6761H11.9101V24.8439H12.0779V24.6761ZM12.0779 30.6019H11.9101V30.7696H12.0779V30.6019ZM15.8539 30.6019V30.7696H16.0217V30.6019H15.8539ZM12.0779 27.4856V27.3178H11.9101V27.4856H12.0779ZM15.8539 27.4856H16.0217V27.3178H15.8539V27.4856ZM48.447 14.257V14.0893H48.2793V14.257H48.447ZM45.6376 13.1108H45.8054V13.1028L45.8046 13.0948L45.6376 13.1108ZM45.6376 19.7259L45.8046 19.7419L45.8054 19.7339V19.7259H45.6376ZM48.447 18.5797H48.2793V18.7474H48.447V18.5797ZM51.4076 26.0698L51.5743 26.0898L51.5749 26.0822L51.4076 26.0698ZM51.4042 26.6176H51.572V26.6096L51.5712 26.6016L51.4042 26.6176ZM51.4042 32.0157L51.5712 32.0317L51.572 32.0237V32.0157H51.4042ZM51.4076 32.5641L51.5751 32.5516L51.5742 32.544L51.4076 32.5641ZM52.6364 33.6786L52.6403 33.5108H52.6364V33.6786ZM59.5613 33.6786V33.5108L59.5574 33.5108L59.5613 33.6786ZM60.7991 32.4293L60.6313 32.4281V32.4293H60.7991ZM60.7992 32.4107L60.967 32.4119V32.4107H60.7992ZM60.7992 32.1377H60.967L60.967 32.1365L60.7992 32.1377ZM60.7991 32.1191H60.6313L60.6313 32.1203L60.7991 32.1191ZM60.7991 26.5142L60.6313 26.5119V26.5142H60.7991ZM60.7991 26.2041H60.6313L60.6314 26.2064L60.7991 26.2041ZM54.2136 27.7639V27.5961H54.0459V27.7639H54.2136ZM54.2136 30.8694H54.0459V31.0372H54.2136V30.8694ZM57.9897 30.8694V31.0372H58.1574V30.8694H57.9897ZM57.9897 27.7639H58.1574V27.5961H57.9897V27.7639ZM59.2067 10.4669H59.5821V10.1314H59.2067V10.4669ZM58.1574 11.5162C58.1574 10.9367 58.6272 10.4669 59.2067 10.4669V10.1314C58.4419 10.1314 57.8219 10.7514 57.8219 11.5162H58.1574ZM58.1574 22.0603V11.5162H57.8219V22.0603H58.1574ZM59.2067 23.1096C58.6272 23.1096 58.1574 22.6398 58.1574 22.0603H57.8219C57.8219 22.8251 58.4419 23.4451 59.2067 23.4451V23.1096ZM59.5821 23.1096H59.2067V23.4451H59.5821V23.1096ZM60.6313 22.0603C60.6313 22.6398 60.1616 23.1096 59.5821 23.1096V23.4451C60.3469 23.4451 60.9669 22.8251 60.9669 22.0603H60.6313ZM60.6313 18.198V22.0603H60.9669V18.198H60.6313ZM64.2627 18.0302H60.7991V18.3657H64.2627V18.0302ZM65.2438 17.0491C65.2438 17.591 64.8046 18.0302 64.2627 18.0302V18.3657C64.9899 18.3657 65.5793 17.7763 65.5793 17.0491H65.2438ZM65.2438 16.5373V17.0491H65.5793V16.5373H65.2438ZM64.2627 15.5563C64.8046 15.5563 65.2438 15.9955 65.2438 16.5373H65.5793C65.5793 15.8102 64.9899 15.2207 64.2627 15.2207V15.5563ZM60.7991 15.5563H64.2627V15.2207H60.7991V15.5563ZM60.6313 11.5162V15.3885H60.9669V11.5162H60.6313ZM59.5821 10.4669C60.1616 10.4669 60.6313 10.9367 60.6313 11.5162H60.9669C60.9669 10.7514 60.3469 10.1314 59.5821 10.1314V10.4669ZM45.0015 26.5319L45.0984 26.787L45.4121 26.6679L45.3151 26.4127L45.0015 26.5319ZM43.5819 25.8939C44.1501 25.6781 44.7856 25.9637 45.0015 26.5319L45.3151 26.4127C45.0335 25.6713 44.2042 25.2986 43.4628 25.5802L43.5819 25.8939ZM30.5141 30.858L43.5819 25.8939L43.4628 25.5802L30.3949 30.5443L30.5141 30.858ZM29.8761 32.2775C29.6603 31.7093 29.9459 31.0738 30.5141 30.858L30.3949 30.5443C29.6535 30.8259 29.2808 31.6553 29.5624 32.3967L29.8761 32.2775ZM29.9731 32.5327L29.8761 32.2775L29.5624 32.3967L29.6594 32.6519L29.9731 32.5327ZM31.3926 33.1707C30.8244 33.3865 30.1889 33.1009 29.9731 32.5327L29.6594 32.6519C29.941 33.3933 30.7703 33.766 31.5117 33.4843L31.3926 33.1707ZM44.4604 28.2066L31.3926 33.1707L31.5117 33.4843L44.5796 28.5203L44.4604 28.2066ZM45.0984 26.787C45.3142 27.3552 45.0286 27.9908 44.4604 28.2066L44.5796 28.5203C45.321 28.2386 45.6937 27.4093 45.4121 26.6679L45.0984 26.787ZM34.3461 17.5462L34.0971 17.4343L33.9595 17.7404L34.2085 17.8523L34.3461 17.5462ZM34.4961 17.6245C34.4482 17.5958 34.3981 17.5696 34.3461 17.5462L34.2085 17.8523C34.2486 17.8703 34.2871 17.8904 34.3239 17.9124L34.4961 17.6245ZM40.6517 20.3897L34.4788 17.6154L34.3412 17.9215L40.5141 20.6957L40.6517 20.3897ZM41.3728 22.2881C41.6979 21.5647 41.3751 20.7148 40.6517 20.3897L40.5141 20.6957C41.0685 20.9448 41.3159 21.5962 41.0668 22.1506L41.3728 22.2881ZM41.2609 22.5371L41.3728 22.2881L41.0668 22.1506L40.9549 22.3996L41.2609 22.5371ZM39.3625 23.2583C40.0859 23.5834 40.9358 23.2605 41.2609 22.5371L40.9549 22.3996C40.7057 22.9539 40.0544 23.2014 39.5 22.9522L39.3625 23.2583ZM34.2101 20.9427L39.3625 23.2583L39.5 22.9522L34.3476 20.6366L34.2101 20.9427ZM32.1181 26.0068L34.4319 20.8584L34.1258 20.7209L31.8121 25.8692L32.1181 26.0068ZM30.2197 26.7279C30.9431 27.053 31.793 26.7301 32.1181 26.0068L31.8121 25.8692C31.5629 26.4236 30.9116 26.671 30.3572 26.4219L30.2197 26.7279ZM29.9707 26.616L30.2197 26.7279L30.3572 26.4219L30.1082 26.31L29.9707 26.616ZM29.2495 24.7175C28.9244 25.4409 29.2473 26.2909 29.9707 26.616L30.1082 26.31C29.5539 26.0608 29.3065 25.4094 29.5556 24.8551L29.2495 24.7175ZM32.0407 18.5068L29.2495 24.7175L29.5556 24.8551L32.3468 18.6444L32.0407 18.5068ZM32.0793 18.4107C32.0632 18.4466 32.0486 18.4829 32.0357 18.5194L32.3518 18.6318C32.3618 18.6038 32.373 18.5759 32.3854 18.5482L32.0793 18.4107ZM32.1912 18.1617L32.0793 18.4107L32.3854 18.5482L32.4973 18.2993L32.1912 18.1617ZM32.5761 17.6515C32.4158 17.7863 32.2826 17.9584 32.1912 18.1617L32.4973 18.2993C32.5675 18.1429 32.6695 18.0114 32.792 17.9084L32.5761 17.6515ZM34.0971 17.4343C33.5735 17.199 32.984 17.3033 32.5751 17.6523L32.793 17.9075C33.1069 17.6395 33.5587 17.5602 33.9595 17.7404L34.0971 17.4343ZM10.514 19.4479H10.8324V19.1123H10.514V19.4479ZM9.43625 20.5256C9.43625 19.9304 9.91876 19.4479 10.514 19.4479V19.1123C9.73344 19.1123 9.10071 19.7451 9.10071 20.5256H9.43625ZM9.43625 25.9116V20.5256H9.10071V25.9116H9.43625ZM9.43584 25.9443C9.43584 25.9348 9.43596 25.9253 9.4362 25.9158L9.10076 25.9073C9.10045 25.9196 9.10029 25.932 9.10029 25.9443H9.43584ZM9.43584 26.2173V25.9443H9.10029V26.2173H9.43584ZM9.4362 26.2458C9.43596 26.2364 9.43584 26.2269 9.43584 26.2173H9.10029C9.10029 26.2297 9.10045 26.242 9.10076 26.2543L9.4362 26.2458ZM9.43625 31.7482V26.2501H9.10071V31.7482H9.43625ZM9.43047 31.8701C9.43047 31.8343 9.43217 31.799 9.43549 31.7641L9.10147 31.7323C9.09714 31.7777 9.09492 31.8237 9.09492 31.8701H9.43047ZM9.43047 32.1431V31.8701H9.09492V32.1431H9.43047ZM9.45644 32.382C9.43946 32.3053 9.43047 32.2253 9.43047 32.1431H9.09492C9.09492 32.2499 9.1066 32.3541 9.12882 32.4545L9.45644 32.382ZM10.514 33.2507C9.9916 33.2507 9.55571 32.8789 9.45715 32.3854L9.12811 32.4511C9.25739 33.0984 9.82852 33.5862 10.514 33.5862V33.2507ZM10.8324 33.2507H10.514V33.5862H10.8324V33.2507ZM10.9486 33.2445C10.9105 33.2486 10.8717 33.2507 10.8324 33.2507V33.5862C10.8837 33.5862 10.9344 33.5835 10.9843 33.5782L10.9486 33.2445ZM16.9654 33.2436H10.9665V33.5791H16.9654V33.2436ZM17.0994 33.2507C17.0601 33.2507 17.0213 33.2486 16.9832 33.2445L16.9475 33.5782C16.9975 33.5835 17.0482 33.5862 17.0994 33.5862V33.2507ZM17.4179 33.2507H17.0994V33.5862H17.4179V33.2507ZM18.4956 32.173C18.4956 32.7682 18.0131 33.2507 17.4179 33.2507V33.5862C18.1984 33.5862 18.8311 32.9535 18.8311 32.173H18.4956ZM18.4956 32.1616V32.173H18.8311V32.1616H18.4956ZM18.4957 32.1419L18.4956 32.1604L18.8311 32.1628L18.8313 32.1443L18.4957 32.1419ZM18.4957 31.8701V32.1431H18.8313V31.8701H18.4957ZM18.4956 31.8528L18.4957 31.8713L18.8313 31.8689L18.8311 31.8504L18.4956 31.8528ZM18.4956 26.3363V31.8516H18.8311V26.3363H18.4956ZM18.5011 26.2173C18.5011 26.2522 18.4995 26.2867 18.4963 26.3207L18.8304 26.3518C18.8345 26.3075 18.8366 26.2626 18.8366 26.2173H18.5011ZM18.5011 25.9443V26.2173H18.8366V25.9443H18.5011ZM18.4963 25.8409C18.4995 25.8749 18.5011 25.9094 18.5011 25.9443H18.8366C18.8366 25.899 18.8345 25.8542 18.8304 25.8099L18.4963 25.8409ZM18.4956 20.5256V25.8254H18.8311V20.5256H18.4956ZM17.4179 19.4479C18.0131 19.4479 18.4956 19.9304 18.4956 20.5256H18.8311C18.8311 19.7451 18.1984 19.1123 17.4179 19.1123V19.4479ZM17.0994 19.4479H17.4179V19.1123H17.0994V19.4479ZM16.0217 20.5256C16.0217 19.9304 16.5042 19.4479 17.0994 19.4479V19.1123C16.3189 19.1123 15.6862 19.7451 15.6862 20.5256H16.0217ZM16.0217 24.6761V20.5256H15.6862V24.6761H16.0217ZM12.0779 24.8439H15.8539V24.5083H12.0779V24.8439ZM11.9101 20.5256V24.6761H12.2457V20.5256H11.9101ZM10.8324 19.4479C11.4276 19.4479 11.9101 19.9304 11.9101 20.5256H12.2457C12.2457 19.7451 11.613 19.1123 10.8324 19.1123V19.4479ZM12.0779 30.7696H15.8539V30.4341H12.0779V30.7696ZM11.9101 27.4856V30.6019H12.2457V27.4856H11.9101ZM15.8539 27.3178H12.0779V27.6533H15.8539V27.3178ZM16.0217 30.6019V27.4856H15.6862V30.6019H16.0217ZM23.1964 19.1793H23.4694V18.8438H23.1964V19.1793ZM22.0959 20.2798C22.0959 19.672 22.5886 19.1793 23.1964 19.1793V18.8438C22.4033 18.8438 21.7604 19.4867 21.7604 20.2798H22.0959ZM22.0959 32.4106V20.2798H21.7604V32.4106H22.0959ZM23.1964 33.5111C22.5886 33.5111 22.0959 33.0184 22.0959 32.4106H21.7604C21.7604 33.2037 22.4033 33.8466 23.1964 33.8466V33.5111ZM23.4694 33.5111H23.1964V33.8466H23.4694V33.5111ZM24.5698 32.4106C24.5698 33.0184 24.0771 33.5111 23.4694 33.5111V33.8466C24.2624 33.8466 24.9054 33.2037 24.9054 32.4106H24.5698ZM24.5698 20.2798V32.4106H24.9054V20.2798H24.5698ZM23.4694 19.1793C24.0771 19.1793 24.5698 19.672 24.5698 20.2798H24.9054C24.9054 19.4867 24.2624 18.8438 23.4694 18.8438V19.1793ZM53.7644 14.0893H48.447V14.4248H53.7644V14.0893ZM54.8649 12.9888C54.8649 13.5966 54.3722 14.0893 53.7644 14.0893V14.4248C54.5575 14.4248 55.2004 13.7819 55.2004 12.9888H54.8649ZM54.8649 12.7158V12.9888H55.2004V12.7158H54.8649ZM53.7644 11.6153C54.3722 11.6153 54.8649 12.108 54.8649 12.7158H55.2004C55.2004 11.9227 54.5575 11.2798 53.7644 11.2798V11.6153ZM46.9001 11.6153H53.7644V11.2798H46.9001V11.6153ZM45.7996 12.7158C45.7996 12.108 46.2923 11.6153 46.9001 11.6153V11.2798C46.107 11.2798 45.4641 11.9227 45.4641 12.7158H45.7996ZM45.7996 12.9888V12.7158H45.4641V12.9888H45.7996ZM45.8046 13.0948C45.8013 13.06 45.7996 13.0246 45.7996 12.9888H45.4641C45.4641 13.0353 45.4663 13.0813 45.4706 13.1267L45.8046 13.0948ZM45.8054 19.7259V13.1108H45.4698V19.7259H45.8054ZM45.7996 19.8479C45.7996 19.8121 45.8013 19.7767 45.8046 19.7419L45.4706 19.71C45.4663 19.7554 45.4641 19.8014 45.4641 19.8479H45.7996ZM45.7996 20.1209V19.8479H45.4641V20.1209H45.7996ZM46.9001 21.2214C46.2923 21.2214 45.7996 20.7287 45.7996 20.1209H45.4641C45.4641 20.914 46.107 21.5569 46.9001 21.5569V21.2214ZM53.7644 21.2214H46.9001V21.5569H53.7644V21.2214ZM54.8649 20.1209C54.8649 20.7287 54.3722 21.2214 53.7644 21.2214V21.5569C54.5575 21.5569 55.2004 20.914 55.2004 20.1209H54.8649ZM54.8649 19.8479V20.1209H55.2004V19.8479H54.8649ZM53.7644 18.7474C54.3722 18.7474 54.8649 19.2401 54.8649 19.8479H55.2004C55.2004 19.0548 54.5575 18.4119 53.7644 18.4119V18.7474ZM48.447 18.7474H53.7644V18.4119H48.447V18.7474ZM48.2793 14.257V18.5797H48.6148V14.257H48.2793ZM52.6099 25.1222H52.6667V24.7866H52.6099V25.1222ZM51.5749 26.0822C51.6146 25.5454 52.0629 25.1222 52.6099 25.1222V24.7866C51.8859 24.7866 51.2929 25.3467 51.2402 26.0574L51.5749 26.0822ZM51.241 26.0498C51.2342 26.1065 51.2307 26.1642 51.2307 26.2226H51.5662C51.5662 26.1776 51.5689 26.1333 51.5741 26.0898L51.241 26.0498ZM51.2307 26.2226V26.4956H51.5662V26.2226H51.2307ZM51.2307 26.4956C51.2307 26.5421 51.2329 26.5881 51.2372 26.6335L51.5712 26.6016C51.5679 26.5668 51.5662 26.5315 51.5662 26.4956H51.2307ZM51.572 32.0157V26.6176H51.2365V32.0157H51.572ZM51.5662 32.1377C51.5662 32.1019 51.5679 32.0665 51.5712 32.0317L51.2372 31.9998C51.2329 32.0452 51.2307 32.0912 51.2307 32.1377H51.5662ZM51.5662 32.4107V32.1377H51.2307V32.4107H51.5662ZM51.5742 32.544C51.5689 32.5004 51.5662 32.4559 51.5662 32.4107H51.2307C51.2307 32.4693 51.2342 32.5272 51.2411 32.5842L51.5742 32.544ZM52.6099 33.5108C52.0632 33.5108 51.615 33.088 51.5749 32.5516L51.2403 32.5766C51.2934 33.2868 51.8862 33.8463 52.6099 33.8463V33.5108ZM52.6364 33.5108H52.6099V33.8463H52.6364V33.5108ZM52.6667 33.5112C52.6578 33.5112 52.6491 33.5111 52.6403 33.5108L52.6324 33.8463C52.6438 33.8466 52.6552 33.8467 52.6667 33.8467V33.5112ZM59.531 33.5112H52.6667V33.8467H59.531V33.5112ZM59.5574 33.5108C59.5486 33.5111 59.5398 33.5112 59.531 33.5112V33.8467C59.5424 33.8467 59.5539 33.8466 59.5653 33.8463L59.5574 33.5108ZM59.5934 33.5108H59.5613V33.8463H59.5934V33.5108ZM60.6313 32.4729C60.6313 33.0461 60.1667 33.5108 59.5934 33.5108V33.8463C60.352 33.8463 60.9669 33.2314 60.9669 32.4729H60.6313ZM60.6313 32.4293V32.4729H60.9669V32.4293H60.6313ZM60.6315 32.4095L60.6313 32.4281L60.9669 32.4305L60.967 32.4119L60.6315 32.4095ZM60.6315 32.1377V32.4107H60.967V32.1377H60.6315ZM60.6313 32.1203L60.6315 32.1389L60.967 32.1365L60.9669 32.1179L60.6313 32.1203ZM60.6313 26.5142V32.1191H60.9669V26.5142H60.6313ZM60.9669 26.5166C60.967 26.5097 60.967 26.5027 60.967 26.4956H60.6315C60.6315 26.501 60.6314 26.5064 60.6314 26.5119L60.9669 26.5166ZM60.967 26.4956V26.2226H60.6315V26.4956H60.967ZM60.967 26.2226C60.967 26.2156 60.967 26.2086 60.9669 26.2017L60.6314 26.2064C60.6314 26.2119 60.6315 26.2173 60.6315 26.2226H60.967ZM60.6313 26.1601V26.2041H60.9669V26.1601H60.6313ZM59.5934 25.1222C60.1667 25.1222 60.6313 25.5869 60.6313 26.1601H60.9669C60.9669 25.4016 60.352 24.7866 59.5934 24.7866V25.1222ZM59.531 25.1222H59.5934V24.7866H59.531V25.1222ZM59.531 24.7866H59.1953V25.1222H59.531V24.7866ZM59.1953 24.7866H53.008V25.1222H59.1953V24.7866ZM53.008 24.7866H52.6667V25.1222H53.008V24.7866ZM54.0459 27.7639V30.8694H54.3814V27.7639H54.0459ZM54.2136 31.0372H57.9897V30.7017H54.2136V31.0372ZM58.1574 30.8694V27.7639H57.8219V30.8694H58.1574ZM54.2136 27.9317H57.9897V27.5961H54.2136V27.9317Z" fill="#9A9AA4"/>
</svg>
