<svg width="177" height="41" viewBox="0 0 177 41" fill="none" xmlns="http://www.w3.org/2000/svg">
<g clip-path="url(#clip0_4341_12857)">
<path d="M48.8203 29.3673L57.4074 11.6387H64.2125L72.887 29.3673H66.4047L64.8177 25.6766H56.5467L54.9328 29.3673H48.8203ZM63.345 22.3081L60.662 16.1346L57.979 22.3081H63.3383H63.345Z" fill="#1A1A24"/>
<path d="M74.5078 11.6387H79.9075V24.9922H90.3774V29.3673H74.5078V11.6387Z" fill="#1A1A24"/>
<path d="M92.4883 11.6387H97.888V24.9922H108.358V29.3673H92.4883V11.6387Z" fill="#1A1A24"/>
<path d="M112.385 11.6387L116.017 23.3683L119.271 11.6387H125.007L128.295 23.3683L131.987 11.6387H137.636L131.584 29.3673H125.269L122.015 17.9933L118.787 29.3673H112.56L106.535 11.6387H112.385Z" fill="#1A1A24"/>
<path d="M134.603 29.3673L143.19 11.6387H149.995L158.669 29.3673H152.187L150.6 25.6766H142.329L140.715 29.3673H134.603ZM149.127 22.3081L146.444 16.1346L143.761 22.3081H149.121H149.127Z" fill="#1A1A24"/>
<path d="M165.992 18.878L170.578 11.6376H177.007L168.938 23.1323V29.3662H162.711V23.0988L154.642 11.6309H161.326L165.992 18.8713V18.878Z" fill="#1A1A24"/>
<path d="M23.5364 24.6336C23.5028 24.6 23.4826 24.553 23.4557 24.5128L21.0484 22.0501V29.4046C21.0484 29.7065 20.8063 29.9481 20.5037 29.9481C20.2011 29.9481 19.959 29.7065 19.959 29.4046V22.0501L14.9023 27.2372C14.7947 27.3445 14.6535 27.4049 14.5123 27.4049C14.371 27.4049 14.2366 27.3512 14.129 27.2506C13.9138 27.0426 13.9071 26.6936 14.1155 26.4789L19.2126 21.2516H12.0242C11.7216 21.2516 11.4795 21.01 11.4795 20.708C11.4795 20.4061 11.7216 20.1645 12.0242 20.1645H19.2126L14.1155 14.9372C13.9071 14.7224 13.9138 14.3802 14.129 14.1655C14.3441 13.9574 14.6871 13.9642 14.9023 14.1789L19.9658 19.366V12.0115C19.9658 11.7095 20.2078 11.4679 20.5104 11.4679C20.813 11.4679 21.0551 11.7095 21.0551 12.0115V19.366L26.1186 14.1789C26.3271 13.9642 26.67 13.9574 26.8919 14.1655C27.1071 14.3735 27.1138 14.7224 26.9054 14.9372L21.8082 20.1645H28.9966C29.2992 20.1645 29.5413 20.4061 29.5413 20.708C29.5413 21.01 29.2992 21.2516 28.9966 21.2516H21.8082L25.1705 24.6939C28.842 28.1363 32.9842 29.9481 37.2139 29.9481C37.7518 29.9481 38.2965 29.9146 38.8345 29.8542C40.2802 27.0493 41.1006 23.8686 41.1006 20.4933C41.0871 9.17971 31.8881 0 20.5441 0C9.19997 0 0.000976562 9.1797 0.000976562 20.5C0.000976562 31.8203 9.19997 41 20.5441 41C23.718 41 26.7238 40.282 29.4001 39.0003C29.7431 33.9944 27.793 29.002 23.5297 24.6336H23.5364ZM31.7133 19.2116C31.7133 19.0841 31.868 19.017 31.9621 19.0975L33.6634 20.6007C33.7306 20.661 33.7306 20.7684 33.6634 20.8221L31.9621 22.3252C31.868 22.4124 31.7133 22.3453 31.7133 22.2111V19.2049V19.2116ZM27.4971 11.2465L29.7363 11.0787C29.8305 11.072 29.9044 11.1458 29.8977 11.2398L29.7363 13.5347C29.7296 13.6622 29.5682 13.7226 29.4808 13.6286L27.403 11.5015C27.3155 11.4075 27.3693 11.2599 27.4971 11.2465ZM18.9302 8.93142L20.3961 7.18674C20.4566 7.11293 20.5642 7.11293 20.6248 7.18674L22.0907 8.93142C22.1714 9.03208 22.1041 9.17971 21.9764 9.17971H19.0378C18.91 9.17971 18.8428 9.03208 18.9235 8.93142H18.9302ZM11.2711 11.0385L13.5103 11.2062C13.6381 11.2129 13.6986 11.3673 13.6045 11.4612L11.5266 13.5884C11.4392 13.6823 11.2778 13.6219 11.2711 13.4944L11.1097 11.1995C11.1097 11.1056 11.177 11.0318 11.2711 11.0385ZM9.26049 22.1642C9.26049 22.2917 9.10583 22.3588 9.01169 22.2782L7.31041 20.7751C7.24317 20.7147 7.24317 20.6074 7.31041 20.5537L9.01169 19.0506C9.10583 18.9633 9.26049 19.0304 9.26049 19.1646V22.1709V22.1642ZM13.4767 30.1293L11.2375 30.2971C11.1433 30.3038 11.0694 30.23 11.0761 30.136L11.2375 27.8411C11.2442 27.7136 11.4056 27.6532 11.493 27.7471L13.5708 29.8743C13.6583 29.9683 13.6045 30.1159 13.4767 30.1293ZM22.0436 32.4444L20.5777 34.189C20.5172 34.2628 20.4096 34.2628 20.3491 34.189L18.8831 32.4444C18.8024 32.3437 18.8697 32.1961 18.9974 32.1961H21.936C22.0638 32.1961 22.131 32.3437 22.0503 32.4444H22.0436Z" fill="#1A1A24"/>
</g>
<defs>
<clipPath id="clip0_4341_12857">
<rect width="177" height="41" fill="white"/>
</clipPath>
</defs>
</svg>
