<svg width="636" height="624" viewBox="0 0 636 624" fill="none" xmlns="http://www.w3.org/2000/svg">
<g clip-path="url(#clip0_4738_17408)">
<path d="M66.2773 455.902C66.2773 485.681 66.2773 500.57 75.2108 504.316C84.1443 508.063 94.7108 497.496 115.748 476.459L172.519 419.688C177.514 414.693 181.932 410.274 185.679 406.336C190.77 400.957 197.878 397.979 205.275 397.979H294.322C331.496 397.979 350.036 397.979 361.563 386.452C373.09 374.925 373.09 356.289 373.09 319.21V97.9862C373.09 43.6167 373.09 16.432 355.223 4.71276C337.356 -6.9104 312.477 3.94429 262.622 25.7497L47.93 119.888C25.068 129.878 13.5409 134.969 7.20097 144.767C0.861074 154.565 0.765015 167.053 0.765015 192.124V319.114C0.765015 356.289 0.765015 374.829 12.2921 386.356C20.6492 394.713 32.8487 397.018 53.1172 397.691C60.4177 397.883 66.2773 403.838 66.2773 411.139V455.902Z" fill="#FF6838"/>
<path d="M569.723 574.815C569.723 604.593 569.723 619.482 560.789 623.228C551.856 626.975 541.289 616.408 520.252 595.371L463.481 538.6C458.486 533.605 454.068 529.187 450.321 525.248C445.23 519.869 438.122 516.891 430.725 516.891H341.679C304.504 516.891 285.964 516.891 274.437 505.364C262.91 493.837 262.91 475.201 262.91 438.123V216.994C262.91 162.625 262.91 135.44 280.777 123.721C298.644 112.098 323.523 122.953 373.378 144.758L588.166 238.8C611.028 248.79 622.555 253.881 628.895 263.679C635.235 273.477 635.331 285.965 635.331 311.036V438.026C635.331 475.201 635.331 493.741 623.804 505.268C615.447 513.625 603.247 515.93 582.979 516.603C575.678 516.795 569.819 522.751 569.819 530.051V574.815H569.723Z" fill="#FFA98F"/>
<path fill-rule="evenodd" clip-rule="evenodd" d="M373.089 144.624C323.427 122.903 298.609 112.113 280.777 123.713C262.91 135.433 262.91 162.617 262.91 216.987V216.987V397.972H294.321C331.496 397.972 350.035 397.972 361.562 386.445C373.089 374.918 373.089 356.283 373.089 319.204V319.204V144.624Z" fill="#FF8862"/>
</g>
<defs>
<clipPath id="clip0_4738_17408">
<rect width="634.47" height="624" fill="white" transform="translate(0.765015 -0.000732422)"/>
</clipPath>
</defs>
</svg>
