<svg width="69" height="127" viewBox="0 0 69 127" fill="none" xmlns="http://www.w3.org/2000/svg">
<path d="M34.2757 67.1524C53.2057 67.1524 68.5515 52.1198 68.5515 33.5762C68.5515 15.0326 53.2057 0 34.2757 0C15.3458 0 0 15.0326 0 33.5762C0 52.1198 15.3458 67.1524 34.2757 67.1524Z" fill="#F75927"/>
<path opacity="0.6" fill-rule="evenodd" clip-rule="evenodd" d="M34.1549 111.681C15.591 111.681 0.541992 96.9965 0.541992 78.8817C0.541992 60.767 15.591 46.082 34.1549 46.082C52.7188 46.082 67.7678 60.767 67.7678 78.8817C67.7678 87.8919 64.0447 96.0535 58.0178 101.982H58.0182L34.1549 126.441L34.1549 111.681Z" fill="#FF6838"/>
<path opacity="0.6" fill-rule="evenodd" clip-rule="evenodd" d="M59.02 56.8103C52.7815 63.184 44.0018 67.1522 34.2759 67.1522C24.4861 67.1522 15.655 63.1317 9.40918 56.6843C15.5524 50.1664 24.3651 46.082 34.1555 46.082C44.0088 46.082 52.8718 50.2191 59.02 56.8103Z" fill="#FF7D54"/>
</svg>
