<svg width="177" height="42" viewBox="0 0 177 42" fill="none" xmlns="http://www.w3.org/2000/svg">
<g clip-path="url(#clip0_5028_7811)">
<path d="M48.8203 30.1752L57.4074 12.4465H64.2125L72.887 30.1752H66.4047L64.8177 26.4845H56.5467L54.9328 30.1752H48.8203ZM63.345 23.1159L60.662 16.9424L57.979 23.1159H63.3383H63.345Z" fill="#F2F2F7"/>
<path d="M74.5076 12.4453H79.9073V25.7988H90.3772V30.174H74.5076V12.4453Z" fill="#F2F2F7"/>
<path d="M92.4883 12.4453H97.888V25.7988H108.358V30.174H92.4883V12.4453Z" fill="#F2F2F7"/>
<path d="M112.386 12.4453L116.017 24.1749L119.271 12.4453H125.007L128.296 24.1749L131.987 12.4453H137.636L131.584 30.174H125.27L122.015 18.8L118.787 30.174H112.56L106.535 12.4453H112.386Z" fill="#F2F2F7"/>
<path d="M134.603 30.174L143.19 12.4453H149.995L158.67 30.174H152.187L150.6 26.4833H142.329L140.716 30.174H134.603ZM149.128 23.1147L146.445 16.9412L143.762 23.1147H149.121H149.128Z" fill="#F2F2F7"/>
<path d="M165.992 19.6851L170.578 12.4447H177.007L168.938 23.9395V30.1733H162.711V23.9059L154.642 12.438H161.326L165.992 19.6784V19.6851Z" fill="#F2F2F7"/>
<path d="M23.5364 25.4409C23.5028 25.4074 23.4826 25.3604 23.4557 25.3201L21.0484 22.8575V30.212C21.0484 30.5139 20.8063 30.7555 20.5037 30.7555C20.2011 30.7555 19.959 30.5139 19.959 30.212V22.8575L14.9023 28.0445C14.7947 28.1519 14.6535 28.2123 14.5123 28.2123C14.371 28.2123 14.2366 28.1586 14.129 28.0579C13.9138 27.8499 13.9071 27.501 14.1155 27.2863L19.2126 22.0589H12.0242C11.7216 22.0589 11.4795 21.8174 11.4795 21.5154C11.4795 21.2134 11.7216 20.9719 12.0242 20.9719H19.2126L14.1155 15.7445C13.9071 15.5298 13.9138 15.1876 14.129 14.9728C14.3441 14.7648 14.6871 14.7715 14.9023 14.9863L19.9658 20.1733V12.8188C19.9658 12.5169 20.2078 12.2753 20.5104 12.2753C20.813 12.2753 21.0551 12.5169 21.0551 12.8188V20.1733L26.1186 14.9863C26.3271 14.7715 26.67 14.7648 26.8919 14.9728C27.1071 15.1809 27.1138 15.5298 26.9054 15.7445L21.8082 20.9719H28.9966C29.2992 20.9719 29.5413 21.2134 29.5413 21.5154C29.5413 21.8174 29.2992 22.0589 28.9966 22.0589H21.8082L25.1705 25.5013C28.842 28.9437 32.9842 30.7555 37.2139 30.7555C37.7518 30.7555 38.2965 30.7219 38.8345 30.6615C40.2802 27.8566 41.1006 24.676 41.1006 21.3007C41.0871 9.98708 31.8881 0.807373 20.5441 0.807373C9.19997 0.807373 0.000976562 9.98708 0.000976562 21.3074C0.000976562 32.6277 9.19997 41.8074 20.5441 41.8074C23.718 41.8074 26.7238 41.0894 29.4001 39.8077C29.7431 34.8018 27.793 29.8093 23.5297 25.4409H23.5364ZM31.7133 20.019C31.7133 19.8915 31.868 19.8244 31.9621 19.9049L33.6634 21.408C33.7306 21.4684 33.7306 21.5758 33.6634 21.6295L31.9621 23.1326C31.868 23.2198 31.7133 23.1527 31.7133 23.0185V20.0123V20.019ZM27.4971 12.0539L29.7363 11.8861C29.8305 11.8794 29.9044 11.9532 29.8977 12.0471L29.7363 14.3421C29.7296 14.4696 29.5682 14.53 29.4808 14.436L27.403 12.3088C27.3155 12.2149 27.3693 12.0673 27.4971 12.0539ZM18.9302 9.7388L20.3961 7.99412C20.4566 7.9203 20.5642 7.9203 20.6248 7.99412L22.0907 9.7388C22.1714 9.83945 22.1041 9.98708 21.9764 9.98708H19.0378C18.91 9.98708 18.8428 9.83945 18.9235 9.7388H18.9302ZM11.2711 11.8458L13.5103 12.0136C13.6381 12.0203 13.6986 12.1746 13.6045 12.2686L11.5266 14.3958C11.4392 14.4897 11.2778 14.4293 11.2711 14.3018L11.1097 12.0069C11.1097 11.9129 11.177 11.8391 11.2711 11.8458ZM9.26049 22.9715C9.26049 23.099 9.10583 23.1661 9.01169 23.0856L7.31041 21.5825C7.24317 21.5221 7.24317 21.4147 7.31041 21.3611L9.01169 19.8579C9.10583 19.7707 9.26049 19.8378 9.26049 19.972V22.9782V22.9715ZM13.4767 30.9367L11.2375 31.1044C11.1433 31.1111 11.0694 31.0373 11.0761 30.9434L11.2375 28.6485C11.2442 28.521 11.4056 28.4606 11.493 28.5545L13.5708 30.6817C13.6583 30.7756 13.6045 30.9233 13.4767 30.9367ZM22.0436 33.2517L20.5777 34.9964C20.5172 35.0702 20.4096 35.0702 20.3491 34.9964L18.8831 33.2517C18.8024 33.1511 18.8697 33.0034 18.9974 33.0034H21.936C22.0638 33.0034 22.131 33.1511 22.0503 33.2517H22.0436Z" fill="#F2F2F7"/>
</g>
<defs>
<clipPath id="clip0_5028_7811">
<rect width="177" height="41" fill="white" transform="translate(0 0.807373)"/>
</clipPath>
</defs>
</svg>
