<svg width="44" height="45" viewBox="0 0 44 45" fill="none" xmlns="http://www.w3.org/2000/svg">
<path d="M8 29.2822V15.8674C8 14.1581 8.45685 12.8487 9.37056 11.9391C10.2944 11.0296 11.6193 10.5748 13.3452 10.5748H30.6548C32.3909 10.5748 33.7157 11.0296 34.6294 11.9391C35.5431 12.8487 36 14.1581 36 15.8674V29.2822C36 30.9914 35.5431 32.3008 34.6294 33.2104C33.7157 34.12 32.3909 34.5748 30.6548 34.5748H13.3452C11.6193 34.5748 10.2944 34.12 9.37056 33.2104C8.45685 32.3008 8 30.9914 8 29.2822Z" fill="#1A1A24"/>
<path d="M14.7919 19.6007C15.2081 19.6007 15.5635 19.4557 15.8579 19.1659C16.1523 18.866 16.2995 18.5162 16.2995 18.1163C16.2995 17.7065 16.1523 17.3567 15.8579 17.0668C15.5635 16.7769 15.2081 16.632 14.7919 16.632C14.3858 16.632 14.0305 16.7819 13.7259 17.0818C13.4315 17.3717 13.2843 17.7165 13.2843 18.1163C13.2843 18.5162 13.4315 18.866 13.7259 19.1659C14.0305 19.4557 14.3858 19.6007 14.7919 19.6007ZM14.7919 24.0836C15.2081 24.0836 15.5635 23.9437 15.8579 23.6638C16.1523 23.374 16.2995 23.0241 16.2995 22.6143C16.2995 22.2045 16.1523 21.8596 15.8579 21.5798C15.5635 21.2899 15.2081 21.145 14.7919 21.145C14.3756 21.145 14.0203 21.2899 13.7259 21.5798C13.4315 21.8596 13.2843 22.2045 13.2843 22.6143C13.2843 23.0241 13.4315 23.374 13.7259 23.6638C14.0203 23.9437 14.3756 24.0836 14.7919 24.0836ZM14.7919 28.8215C15.2081 28.8215 15.5635 28.6765 15.8579 28.3867C16.1523 28.0868 16.2995 27.737 16.2995 27.3371C16.2995 26.9273 16.1523 26.5775 15.8579 26.2876C15.5635 25.9978 15.2081 25.8528 14.7919 25.8528C14.3858 25.8528 14.0305 26.0028 13.7259 26.3026C13.4315 26.5925 13.2843 26.9373 13.2843 27.3371C13.2843 27.737 13.4315 28.0868 13.7259 28.3867C14.0305 28.6765 14.3858 28.8215 14.7919 28.8215ZM19.3299 19.2408H28.6041C28.9086 19.2408 29.1675 19.1309 29.3807 18.911C29.6041 18.6811 29.7157 18.4162 29.7157 18.1163C29.7157 17.8165 29.6041 17.5566 29.3807 17.3367C29.1675 17.1168 28.9086 17.0068 28.6041 17.0068H19.3299C19.0254 17.0068 18.7614 17.1168 18.5381 17.3367C18.3147 17.5566 18.203 17.8165 18.203 18.1163C18.203 18.4162 18.3147 18.6811 18.5381 18.911C18.7614 19.1309 19.0254 19.2408 19.3299 19.2408ZM19.3299 23.7238H28.6041C28.9188 23.7238 29.1827 23.6138 29.3959 23.3939C29.6091 23.174 29.7157 22.9142 29.7157 22.6143C29.7157 22.3044 29.6091 22.0446 29.3959 21.8347C29.1827 21.6147 28.9188 21.5048 28.6041 21.5048H19.3299C19.0152 21.5048 18.7462 21.6147 18.5228 21.8347C18.3096 22.0446 18.203 22.3044 18.203 22.6143C18.203 22.9142 18.3096 23.174 18.5228 23.3939C18.7462 23.6138 19.0152 23.7238 19.3299 23.7238ZM19.3299 28.4317H28.6041C28.9086 28.4317 29.1675 28.3267 29.3807 28.1168C29.6041 27.8969 29.7157 27.637 29.7157 27.3371C29.7157 27.0273 29.6091 26.7624 29.3959 26.5425C29.1827 26.3226 28.9188 26.2127 28.6041 26.2127H19.3299C19.0152 26.2127 18.7462 26.3226 18.5228 26.5425C18.3096 26.7624 18.203 27.0273 18.203 27.3371C18.203 27.637 18.3147 27.8969 18.5381 28.1168C18.7614 28.3267 19.0254 28.4317 19.3299 28.4317ZM8 29.2822V15.8674C8 14.1581 8.45685 12.8487 9.37056 11.9391C10.2944 11.0296 11.6193 10.5748 13.3452 10.5748H30.6548C32.3909 10.5748 33.7157 11.0296 34.6294 11.9391C35.5431 12.8487 36 14.1581 36 15.8674V29.2822C36 30.9914 35.5431 32.3008 34.6294 33.2104C33.7157 34.12 32.3909 34.5748 30.6548 34.5748H13.3452C11.6193 34.5748 10.2944 34.12 9.37056 33.2104C8.45685 32.3008 8 30.9914 8 29.2822Z" fill="#3F3F49"/>
</svg>
