<svg width="28" height="25" viewBox="0 0 28 25" fill="none" xmlns="http://www.w3.org/2000/svg">
<path d="M0 19.2822V5.86736C0 4.15814 0.456853 2.84873 1.37056 1.93915C2.29442 1.02956 3.61929 0.574768 5.34518 0.574768H22.6548C24.3909 0.574768 25.7157 1.02956 26.6294 1.93915C27.5431 2.84873 28 4.15814 28 5.86736V19.2822C28 20.9914 27.5431 22.3008 26.6294 23.2104C25.7157 24.12 24.3909 24.5748 22.6548 24.5748H5.34518C3.61929 24.5748 2.29442 24.12 1.37056 23.2104C0.456853 22.3008 0 20.9914 0 19.2822Z" fill="#1A1A24"/>
<path d="M6.79188 9.60067C7.20812 9.60067 7.56345 9.45573 7.85787 9.16586C8.15228 8.866 8.29949 8.51616 8.29949 8.11634C8.29949 7.70653 8.15228 7.35669 7.85787 7.06682C7.56345 6.77695 7.20812 6.63202 6.79188 6.63202C6.38579 6.63202 6.03046 6.78195 5.72589 7.08181C5.43147 7.37168 5.28426 7.71652 5.28426 8.11634C5.28426 8.51616 5.43147 8.866 5.72589 9.16586C6.03046 9.45573 6.38579 9.60067 6.79188 9.60067ZM6.79188 14.0836C7.20812 14.0836 7.56345 13.9437 7.85787 13.6638C8.15228 13.374 8.29949 13.0241 8.29949 12.6143C8.29949 12.2045 8.15228 11.8596 7.85787 11.5798C7.56345 11.2899 7.20812 11.145 6.79188 11.145C6.37563 11.145 6.0203 11.2899 5.72589 11.5798C5.43147 11.8596 5.28426 12.2045 5.28426 12.6143C5.28426 13.0241 5.43147 13.374 5.72589 13.6638C6.0203 13.9437 6.37563 14.0836 6.79188 14.0836ZM6.79188 18.8215C7.20812 18.8215 7.56345 18.6765 7.85787 18.3867C8.15228 18.0868 8.29949 17.737 8.29949 17.3371C8.29949 16.9273 8.15228 16.5775 7.85787 16.2876C7.56345 15.9978 7.20812 15.8528 6.79188 15.8528C6.38579 15.8528 6.03046 16.0028 5.72589 16.3026C5.43147 16.5925 5.28426 16.9373 5.28426 17.3371C5.28426 17.737 5.43147 18.0868 5.72589 18.3867C6.03046 18.6765 6.38579 18.8215 6.79188 18.8215ZM11.3299 9.24083H20.6041C20.9086 9.24083 21.1675 9.13088 21.3807 8.91098C21.6041 8.68108 21.7157 8.4162 21.7157 8.11634C21.7157 7.81648 21.6041 7.55659 21.3807 7.33669C21.1675 7.11679 20.9086 7.00684 20.6041 7.00684H11.3299C11.0254 7.00684 10.7614 7.11679 10.5381 7.33669C10.3147 7.55659 10.203 7.81648 10.203 8.11634C10.203 8.4162 10.3147 8.68108 10.5381 8.91098C10.7614 9.13088 11.0254 9.24083 11.3299 9.24083ZM11.3299 13.7238H20.6041C20.9188 13.7238 21.1827 13.6138 21.3959 13.3939C21.6091 13.174 21.7157 12.9142 21.7157 12.6143C21.7157 12.3044 21.6091 12.0446 21.3959 11.8347C21.1827 11.6147 20.9188 11.5048 20.6041 11.5048H11.3299C11.0152 11.5048 10.7462 11.6147 10.5228 11.8347C10.3096 12.0446 10.203 12.3044 10.203 12.6143C10.203 12.9142 10.3096 13.174 10.5228 13.3939C10.7462 13.6138 11.0152 13.7238 11.3299 13.7238ZM11.3299 18.4317H20.6041C20.9086 18.4317 21.1675 18.3267 21.3807 18.1168C21.6041 17.8969 21.7157 17.637 21.7157 17.3371C21.7157 17.0273 21.6091 16.7624 21.3959 16.5425C21.1827 16.3226 20.9188 16.2127 20.6041 16.2127H11.3299C11.0152 16.2127 10.7462 16.3226 10.5228 16.5425C10.3096 16.7624 10.203 17.0273 10.203 17.3371C10.203 17.637 10.3147 17.8969 10.5381 18.1168C10.7614 18.3267 11.0254 18.4317 11.3299 18.4317ZM0 19.2822V5.86736C0 4.15814 0.456853 2.84873 1.37056 1.93915C2.29442 1.02956 3.61929 0.574768 5.34518 0.574768H22.6548C24.3909 0.574768 25.7157 1.02956 26.6294 1.93915C27.5431 2.84873 28 4.15814 28 5.86736V19.2822C28 20.9914 27.5431 22.3008 26.6294 23.2104C25.7157 24.12 24.3909 24.5748 22.6548 24.5748H5.34518C3.61929 24.5748 2.29442 24.12 1.37056 23.2104C0.456853 22.3008 0 20.9914 0 19.2822Z" fill="#3F3F49"/>
</svg>
